<?xml version="1.0" encoding="UTF-8" standalone="no"?>
<!-- Created with Inkscape (http://www.inkscape.org/) -->

<svg
   xmlns:dc="http://purl.org/dc/elements/1.1/"
   xmlns:cc="http://creativecommons.org/ns#"
   xmlns:rdf="http://www.w3.org/1999/02/22-rdf-syntax-ns#"
   xmlns:svg="http://www.w3.org/2000/svg"
   xmlns="http://www.w3.org/2000/svg"
   xmlns:xlink="http://www.w3.org/1999/xlink"
   xmlns:sodipodi="http://sodipodi.sourceforge.net/DTD/sodipodi-0.dtd"
   xmlns:inkscape="http://www.inkscape.org/namespaces/inkscape"
   id="svg2"
   sodipodi:version="0.32"
   inkscape:version="0.48.1 r9760"
   width="400"
   height="250"
   version="1.0"
   sodipodi:docname="esb.svg"
   inkscape:output_extension="org.inkscape.output.svg.inkscape">
  <metadata
     id="metadata7">
    <rdf:RDF>
      <cc:Work
         rdf:about="">
        <dc:format>image/svg+xml</dc:format>
        <dc:type
           rdf:resource="http://purl.org/dc/dcmitype/StillImage" />
        <dc:title></dc:title>
      </cc:Work>
    </rdf:RDF>
  </metadata>
  <defs
     id="defs5">
    <marker
       inkscape:stockid="Arrow1Lend"
       orient="auto"
       refY="0"
       refX="0"
       id="Arrow1Lend"
       style="overflow:visible">
      <path
         id="path3269"
         d="M 0,0 5,-5 -12.5,0 5,5 0,0 z"
         style="fill-rule:evenodd;stroke:#000000;stroke-width:1pt;marker-start:none"
         transform="matrix(-0.8,0,0,-0.8,-10,0)"
         inkscape:connector-curvature="0" />
    </marker>
    <marker
       inkscape:stockid="Arrow1Lstart"
       orient="auto"
       refY="0"
       refX="0"
       id="Arrow1Lstart"
       style="overflow:visible">
      <path
         id="path3266"
         d="M 0,0 5,-5 -12.5,0 5,5 0,0 z"
         style="fill-rule:evenodd;stroke:#000000;stroke-width:1pt;marker-start:none"
         transform="matrix(0.8,0,0,0.8,10,0)"
         inkscape:connector-curvature="0" />
    </marker>
    <linearGradient
       id="linearGradient3255">
      <stop
         id="stop3257"
         offset="0"
         style="stop-color:#808080;stop-opacity:1;" />
      <stop
         style="stop-color:#d4d4d4;stop-opacity:0.97647059;"
         offset="0.6009059"
         id="stop4570" />
      <stop
         id="stop3259"
         offset="1"
         style="stop-color:#ffffff;stop-opacity:1;" />
    </linearGradient>
    <linearGradient
       id="linearGradient3232">
      <stop
         style="stop-color:#ffff80;stop-opacity:1;"
         offset="0"
         id="stop3234" />
      <stop
         style="stop-color:#ffffff;stop-opacity:1;"
         offset="1"
         id="stop3236" />
    </linearGradient>
    <linearGradient
       id="linearGradient3182">
      <stop
         id="stop3184"
         offset="0"
         style="stop-color:#8080ff;stop-opacity:1;" />
      <stop
         id="stop3186"
         offset="1"
         style="stop-color:#ffffff;stop-opacity:1;" />
    </linearGradient>
    <linearGradient
       id="linearGradient3154">
      <stop
         style="stop-color:#ff80ff;stop-opacity:1;"
         offset="0"
         id="stop3156" />
      <stop
         style="stop-color:#ffffff;stop-opacity:1;"
         offset="1"
         id="stop3158" />
    </linearGradient>
    <inkscape:perspective
       sodipodi:type="inkscape:persp3d"
       inkscape:vp_x="0 : 526.18109 : 1"
       inkscape:vp_y="0 : 1000 : 0"
       inkscape:vp_z="744.09448 : 526.18109 : 1"
       inkscape:persp3d-origin="372.04724 : 350.78739 : 1"
       id="perspective9" />
    <radialGradient
       inkscape:collect="always"
       xlink:href="#linearGradient3154"
       id="radialGradient3160"
       cx="14.002308"
       cy="23.93829"
       fx="14.002308"
       fy="23.93829"
       r="5"
       gradientUnits="userSpaceOnUse"
       gradientTransform="matrix(-1.9699995,1.9699998,-1.9699998,-1.9699998,74.892966,64.723882)" />
    <radialGradient
       inkscape:collect="always"
       xlink:href="#linearGradient3154"
       id="radialGradient3164"
       gradientUnits="userSpaceOnUse"
       gradientTransform="matrix(-1.9699995,1.9699998,-1.9699998,-1.9699998,74.892963,79.72388)"
       cx="14.002308"
       cy="23.93829"
       fx="14.002308"
       fy="23.93829"
       r="5" />
    <radialGradient
       inkscape:collect="always"
       xlink:href="#linearGradient3154"
       id="radialGradient3168"
       gradientUnits="userSpaceOnUse"
       gradientTransform="matrix(-1.9699995,1.9699998,-1.9699998,-1.9699998,74.892967,49.72388)"
       cx="14.002308"
       cy="23.93829"
       fx="14.002308"
       fy="23.93829"
       r="5" />
    <radialGradient
       inkscape:collect="always"
       xlink:href="#linearGradient3154"
       id="radialGradient3172"
       gradientUnits="userSpaceOnUse"
       gradientTransform="matrix(-1.9699995,1.9699998,-1.9699998,-1.9699998,74.892969,19.733421)"
       cx="14.002308"
       cy="23.93829"
       fx="14.002308"
       fy="23.93829"
       r="5" />
    <radialGradient
       inkscape:collect="always"
       xlink:href="#linearGradient3154"
       id="radialGradient3176"
       gradientUnits="userSpaceOnUse"
       gradientTransform="matrix(-1.9699995,1.9699998,-1.9699998,-1.9699998,74.892966,34.723878)"
       cx="14.002308"
       cy="23.93829"
       fx="14.002308"
       fy="23.93829"
       r="5" />
    <radialGradient
       inkscape:collect="always"
       xlink:href="#linearGradient3182"
       id="radialGradient3180"
       gradientUnits="userSpaceOnUse"
       gradientTransform="matrix(-1.9699995,1.9699998,-1.9699998,-1.9699998,114.89297,79.72388)"
       cx="14.002308"
       cy="23.93829"
       fx="14.002308"
       fy="23.93829"
       r="5" />
    <radialGradient
       inkscape:collect="always"
       xlink:href="#linearGradient3182"
       id="radialGradient3190"
       gradientUnits="userSpaceOnUse"
       gradientTransform="matrix(-1.9699995,1.9699998,-1.9699998,-1.9699998,114.89297,34.723879)"
       cx="14.002308"
       cy="23.93829"
       fx="14.002308"
       fy="23.93829"
       r="5" />
    <radialGradient
       inkscape:collect="always"
       xlink:href="#linearGradient3182"
       id="radialGradient3194"
       gradientUnits="userSpaceOnUse"
       gradientTransform="matrix(-1.9699995,1.9699998,-1.9699998,-1.9699998,114.89296,49.723876)"
       cx="14.002308"
       cy="23.93829"
       fx="14.002308"
       fy="23.93829"
       r="5" />
    <radialGradient
       inkscape:collect="always"
       xlink:href="#linearGradient3182"
       id="radialGradient3198"
       gradientUnits="userSpaceOnUse"
       gradientTransform="matrix(-1.9699995,1.9699998,-1.9699998,-1.9699998,114.89296,64.723876)"
       cx="14.002308"
       cy="23.93829"
       fx="14.002308"
       fy="23.93829"
       r="5" />
    <radialGradient
       inkscape:collect="always"
       xlink:href="#linearGradient3182"
       id="radialGradient3202"
       gradientUnits="userSpaceOnUse"
       gradientTransform="matrix(-1.9699995,1.9699998,-1.9699998,-1.9699998,114.89296,19.723877)"
       cx="14.002308"
       cy="23.93829"
       fx="14.002308"
       fy="23.93829"
       r="5" />
    <radialGradient
       inkscape:collect="always"
       xlink:href="#linearGradient3232"
       id="radialGradient3304"
       gradientUnits="userSpaceOnUse"
       gradientTransform="matrix(-4.0009271,14.155567,-4.0009277,-14.155567,166.94756,140.79945)"
       cx="14.002308"
       cy="23.93829"
       fx="14.002308"
       fy="23.93829"
       r="5" />
    <radialGradient
       inkscape:collect="always"
       xlink:href="#linearGradient3232"
       id="radialGradient3340"
       gradientUnits="userSpaceOnUse"
       gradientTransform="matrix(-4.0009271,14.155567,-4.0009277,-14.155567,166.94756,140.79945)"
       cx="14.002308"
       cy="23.93829"
       fx="14.002308"
       fy="23.93829"
       r="5" />
    <filter
       inkscape:collect="always"
       id="filter4628"
       x="-0.086331069"
       width="1.1726621"
       y="-0.19672062"
       height="1.3934412"
       color-interpolation-filters="sRGB">
      <feGaussianBlur
         inkscape:collect="always"
         stdDeviation="0.26517577"
         id="feGaussianBlur4630" />
    </filter>
    <radialGradient
       inkscape:collect="always"
       xlink:href="#linearGradient3232"
       id="radialGradient3430"
       gradientUnits="userSpaceOnUse"
       gradientTransform="matrix(-4.0009271,14.155567,-4.0009277,-14.155567,166.94756,140.79945)"
       cx="14.002308"
       cy="23.93829"
       fx="14.002308"
       fy="23.93829"
       r="5" />
    <radialGradient
       inkscape:collect="always"
       xlink:href="#linearGradient3154"
       id="radialGradient3432"
       gradientUnits="userSpaceOnUse"
       gradientTransform="matrix(-1.9699995,1.9699998,-1.9699998,-1.9699998,74.892966,64.723882)"
       cx="14.002308"
       cy="23.93829"
       fx="14.002308"
       fy="23.93829"
       r="5" />
    <radialGradient
       inkscape:collect="always"
       xlink:href="#linearGradient3154"
       id="radialGradient3434"
       gradientUnits="userSpaceOnUse"
       gradientTransform="matrix(-1.9699995,1.9699998,-1.9699998,-1.9699998,74.892963,79.72388)"
       cx="14.002308"
       cy="23.93829"
       fx="14.002308"
       fy="23.93829"
       r="5" />
    <radialGradient
       inkscape:collect="always"
       xlink:href="#linearGradient3154"
       id="radialGradient3436"
       gradientUnits="userSpaceOnUse"
       gradientTransform="matrix(-1.9699995,1.9699998,-1.9699998,-1.9699998,74.892967,49.72388)"
       cx="14.002308"
       cy="23.93829"
       fx="14.002308"
       fy="23.93829"
       r="5" />
    <radialGradient
       inkscape:collect="always"
       xlink:href="#linearGradient3154"
       id="radialGradient3438"
       gradientUnits="userSpaceOnUse"
       gradientTransform="matrix(-1.9699995,1.9699998,-1.9699998,-1.9699998,74.892969,19.733421)"
       cx="14.002308"
       cy="23.93829"
       fx="14.002308"
       fy="23.93829"
       r="5" />
    <radialGradient
       inkscape:collect="always"
       xlink:href="#linearGradient3182"
       id="radialGradient3440"
       gradientUnits="userSpaceOnUse"
       gradientTransform="matrix(-1.9699995,1.9699998,-1.9699998,-1.9699998,114.89297,79.72388)"
       cx="14.002308"
       cy="23.93829"
       fx="14.002308"
       fy="23.93829"
       r="5" />
    <radialGradient
       inkscape:collect="always"
       xlink:href="#linearGradient3154"
       id="radialGradient3442"
       gradientUnits="userSpaceOnUse"
       gradientTransform="matrix(-1.9699995,1.9699998,-1.9699998,-1.9699998,74.892966,34.723878)"
       cx="14.002308"
       cy="23.93829"
       fx="14.002308"
       fy="23.93829"
       r="5" />
    <radialGradient
       inkscape:collect="always"
       xlink:href="#linearGradient3182"
       id="radialGradient3444"
       gradientUnits="userSpaceOnUse"
       gradientTransform="matrix(-1.9699995,1.9699998,-1.9699998,-1.9699998,114.89297,34.723879)"
       cx="14.002308"
       cy="23.93829"
       fx="14.002308"
       fy="23.93829"
       r="5" />
    <radialGradient
       inkscape:collect="always"
       xlink:href="#linearGradient3182"
       id="radialGradient3446"
       gradientUnits="userSpaceOnUse"
       gradientTransform="matrix(-1.9699995,1.9699998,-1.9699998,-1.9699998,114.89296,49.723876)"
       cx="14.002308"
       cy="23.93829"
       fx="14.002308"
       fy="23.93829"
       r="5" />
    <radialGradient
       inkscape:collect="always"
       xlink:href="#linearGradient3182"
       id="radialGradient3448"
       gradientUnits="userSpaceOnUse"
       gradientTransform="matrix(-1.9699995,1.9699998,-1.9699998,-1.9699998,114.89296,64.723876)"
       cx="14.002308"
       cy="23.93829"
       fx="14.002308"
       fy="23.93829"
       r="5" />
    <radialGradient
       inkscape:collect="always"
       xlink:href="#linearGradient3182"
       id="radialGradient3450"
       gradientUnits="userSpaceOnUse"
       gradientTransform="matrix(-1.9699995,1.9699998,-1.9699998,-1.9699998,114.89296,19.723877)"
       cx="14.002308"
       cy="23.93829"
       fx="14.002308"
       fy="23.93829"
       r="5" />
    <radialGradient
       inkscape:collect="always"
       xlink:href="#linearGradient3232"
       id="radialGradient3452"
       gradientUnits="userSpaceOnUse"
       gradientTransform="matrix(-4.0009271,14.155567,-4.0009277,-14.155567,166.94756,140.79945)"
       cx="14.002308"
       cy="23.93829"
       fx="14.002308"
       fy="23.93829"
       r="5" />
    <radialGradient
       inkscape:collect="always"
       xlink:href="#linearGradient3232"
       id="radialGradient3147"
       gradientUnits="userSpaceOnUse"
       gradientTransform="matrix(-4.0009271,14.155567,-4.0009277,-14.155567,182.44127,72.330755)"
       cx="14.002308"
       cy="23.93829"
       fx="14.002308"
       fy="23.93829"
       r="5" />
    <radialGradient
       inkscape:collect="always"
       xlink:href="#linearGradient3182"
       id="radialGradient3153"
       gradientUnits="userSpaceOnUse"
       gradientTransform="matrix(-1.9699995,1.9699998,-1.9699998,-1.9699998,130.38667,-48.744818)"
       cx="14.002308"
       cy="23.93829"
       fx="14.002308"
       fy="23.93829"
       r="5" />
    <radialGradient
       inkscape:collect="always"
       xlink:href="#linearGradient3182"
       id="radialGradient3156"
       gradientUnits="userSpaceOnUse"
       gradientTransform="matrix(-1.9699995,1.9699998,-1.9699998,-1.9699998,130.38667,-3.7448193)"
       cx="14.002308"
       cy="23.93829"
       fx="14.002308"
       fy="23.93829"
       r="5" />
    <radialGradient
       inkscape:collect="always"
       xlink:href="#linearGradient3182"
       id="radialGradient3162"
       gradientUnits="userSpaceOnUse"
       gradientTransform="matrix(-1.9699995,1.9699998,-1.9699998,-1.9699998,130.38667,-18.744819)"
       cx="14.002308"
       cy="23.93829"
       fx="14.002308"
       fy="23.93829"
       r="5" />
    <radialGradient
       inkscape:collect="always"
       xlink:href="#linearGradient3182"
       id="radialGradient3165"
       gradientUnits="userSpaceOnUse"
       gradientTransform="matrix(-1.9699995,1.9699998,-1.9699998,-1.9699998,130.38668,-33.744816)"
       cx="14.002308"
       cy="23.93829"
       fx="14.002308"
       fy="23.93829"
       r="5" />
    <radialGradient
       inkscape:collect="always"
       xlink:href="#linearGradient3154"
       id="radialGradient3169"
       gradientUnits="userSpaceOnUse"
       gradientTransform="matrix(-1.9699995,1.9699998,-1.9699998,-1.9699998,90.386678,-33.744817)"
       cx="14.002308"
       cy="23.93829"
       fx="14.002308"
       fy="23.93829"
       r="5" />
    <radialGradient
       inkscape:collect="always"
       xlink:href="#linearGradient3182"
       id="radialGradient3173"
       gradientUnits="userSpaceOnUse"
       gradientTransform="matrix(-1.9699995,1.9699998,-1.9699998,-1.9699998,130.38668,11.255185)"
       cx="14.002308"
       cy="23.93829"
       fx="14.002308"
       fy="23.93829"
       r="5" />
    <radialGradient
       inkscape:collect="always"
       xlink:href="#linearGradient3154"
       id="radialGradient3178"
       gradientUnits="userSpaceOnUse"
       gradientTransform="matrix(-1.9699995,1.9699998,-1.9699998,-1.9699998,90.386681,-48.735274)"
       cx="14.002308"
       cy="23.93829"
       fx="14.002308"
       fy="23.93829"
       r="5" />
    <radialGradient
       inkscape:collect="always"
       xlink:href="#linearGradient3154"
       id="radialGradient3181"
       gradientUnits="userSpaceOnUse"
       gradientTransform="matrix(-1.9699995,1.9699998,-1.9699998,-1.9699998,90.386679,-18.744815)"
       cx="14.002308"
       cy="23.93829"
       fx="14.002308"
       fy="23.93829"
       r="5" />
    <radialGradient
       inkscape:collect="always"
       xlink:href="#linearGradient3154"
       id="radialGradient3184"
       gradientUnits="userSpaceOnUse"
       gradientTransform="matrix(-1.9699995,1.9699998,-1.9699998,-1.9699998,90.386675,11.255185)"
       cx="14.002308"
       cy="23.93829"
       fx="14.002308"
       fy="23.93829"
       r="5" />
    <radialGradient
       inkscape:collect="always"
       xlink:href="#linearGradient3154"
       id="radialGradient3188"
       gradientUnits="userSpaceOnUse"
       gradientTransform="matrix(-1.9699995,1.9699998,-1.9699998,-1.9699998,90.386678,-3.7448133)"
       cx="14.002308"
       cy="23.93829"
       fx="14.002308"
       fy="23.93829"
       r="5" />
    <radialGradient
       inkscape:collect="always"
       xlink:href="#linearGradient3232"
       id="radialGradient3216"
       gradientUnits="userSpaceOnUse"
       gradientTransform="matrix(-4.0009271,14.155567,-4.0009277,-14.155567,182.44127,72.330755)"
       cx="14.002308"
       cy="23.93829"
       fx="14.002308"
       fy="23.93829"
       r="5" />
  </defs>
  <sodipodi:namedview
     inkscape:window-height="1020"
     inkscape:window-width="1584"
     inkscape:pageshadow="2"
     inkscape:pageopacity="0.0"
     guidetolerance="10.0"
     gridtolerance="10.0"
     objecttolerance="10.0"
     borderopacity="1.0"
     bordercolor="#666666"
     pagecolor="#ffffff"
     id="base"
     showgrid="false"
     showguides="true"
     inkscape:guide-bbox="true"
     inkscape:zoom="1.445012"
     inkscape:cx="223.23551"
     inkscape:cy="81.47733"
     inkscape:window-x="21"
     inkscape:window-y="26"
     inkscape:current-layer="g3347"
     inkscape:window-maximized="0"
     fit-margin-top="0"
     fit-margin-left="0"
     fit-margin-right="0"
     fit-margin-bottom="0" />
  <g
     id="g4596"
     transform="translate(84.163564,296.73826)" />
  <g
     id="g3347"
     transform="matrix(3.7202399,0,0,3.7202399,106.16356,-29.093435)">
    <rect
       rx="1.2441485"
       ry="5.0307264"
       y="-68.318687"
       x="30.643713"
       height="69.699997"
       width="19.700001"
       id="rect3282"
       style="fill:url(#radialGradient3216);fill-opacity:1;fill-rule:evenodd;stroke:#00ff80;stroke-width:0;stroke-linecap:round;stroke-linejoin:miter;stroke-miterlimit:4;stroke-opacity:1;stroke-dasharray:none;stroke-dashoffset:0"
       transform="matrix(0,1,-1,0,0,0)"
       inkscape:export-filename="/home/rpelisse/Repositories/isep/middleware.hg/img/svg.png"
       inkscape:export-xdpi="61.445145"
       inkscape:export-ydpi="61.445145" />
    <path
       inkscape:connector-curvature="0"
       sodipodi:nodetypes="cc"
       id="path3212"
       d="m 48.468695,25.493712 -44.9999997,30"
       style="fill:none;stroke:#000000;stroke-width:0.30000001;stroke-linecap:butt;stroke-linejoin:miter;stroke-miterlimit:4;stroke-opacity:1;stroke-dasharray:none"
       inkscape:export-filename="/home/rpelisse/Repositories/isep/middleware.hg/img/svg.png"
       inkscape:export-xdpi="61.445145"
       inkscape:export-ydpi="61.445145" />
    <path
       inkscape:connector-curvature="0"
       sodipodi:nodetypes="cc"
       id="path2435"
       d="m 48.468695,25.493712 -7.5,5"
       style="fill:#ff0000;fill-rule:evenodd;stroke:#ff8000;stroke-width:0.40000001;stroke-linecap:butt;stroke-linejoin:miter;stroke-miterlimit:4;stroke-opacity:1;stroke-dasharray:none"
       inkscape:export-filename="/home/rpelisse/Repositories/isep/middleware.hg/img/svg.png"
       inkscape:export-xdpi="61.445145"
       inkscape:export-ydpi="61.445145" />
    <path
       inkscape:connector-curvature="0"
       sodipodi:nodetypes="cc"
       id="path3208"
       d="m 48.468695,25.493712 -15,30"
       style="fill:none;stroke:#000000;stroke-width:0.30000001;stroke-linecap:butt;stroke-linejoin:miter;stroke-miterlimit:4;stroke-opacity:1;stroke-dasharray:none"
       inkscape:export-filename="/home/rpelisse/Repositories/isep/middleware.hg/img/svg.png"
       inkscape:export-xdpi="61.445145"
       inkscape:export-ydpi="61.445145" />
    <path
       inkscape:connector-curvature="0"
       sodipodi:nodetypes="cc"
       id="path2437"
       d="m 48.468695,25.493712 -2.5,5"
       style="fill:#ff0000;fill-rule:evenodd;stroke:#ff8000;stroke-width:0.40000001;stroke-linecap:butt;stroke-linejoin:miter;stroke-miterlimit:4;stroke-opacity:1;stroke-dasharray:none"
       inkscape:export-filename="/home/rpelisse/Repositories/isep/middleware.hg/img/svg.png"
       inkscape:export-xdpi="61.445145"
       inkscape:export-ydpi="61.445145" />
    <path
       inkscape:connector-curvature="0"
       sodipodi:nodetypes="cc"
       id="path3204"
       d="m 63.468695,25.493712 0,30"
       style="fill:none;stroke:#000000;stroke-width:0.30000001;stroke-linecap:butt;stroke-linejoin:miter;stroke-miterlimit:4;stroke-opacity:1;stroke-dasharray:none"
       inkscape:export-filename="/home/rpelisse/Repositories/isep/middleware.hg/img/svg.png"
       inkscape:export-xdpi="61.445145"
       inkscape:export-ydpi="61.445145" />
    <path
       inkscape:connector-curvature="0"
       sodipodi:nodetypes="cc"
       id="path3206"
       d="m 33.468695,25.493712 0,30"
       style="fill:none;stroke:#000000;stroke-width:0.30000001;stroke-linecap:butt;stroke-linejoin:miter;stroke-miterlimit:4;stroke-opacity:1;stroke-dasharray:none"
       inkscape:export-filename="/home/rpelisse/Repositories/isep/middleware.hg/img/svg.png"
       inkscape:export-xdpi="61.445145"
       inkscape:export-ydpi="61.445145" />
    <path
       inkscape:connector-curvature="0"
       sodipodi:nodetypes="cc"
       id="path2447"
       d="m 33.468695,50.493712 0,5"
       style="fill:#ff0000;fill-rule:evenodd;stroke:#ff8000;stroke-width:0.40000001;stroke-linecap:butt;stroke-linejoin:miter;stroke-miterlimit:4;stroke-opacity:1;stroke-dasharray:none"
       inkscape:export-filename="/home/rpelisse/Repositories/isep/middleware.hg/img/svg.png"
       inkscape:export-xdpi="61.445145"
       inkscape:export-ydpi="61.445145" />
    <path
       inkscape:connector-curvature="0"
       sodipodi:nodetypes="cc"
       id="path2427"
       d="m 33.468695,25.493712 0,5"
       style="fill:#ff0000;fill-rule:evenodd;stroke:#ff8000;stroke-width:0.40000001;stroke-linecap:butt;stroke-linejoin:miter;stroke-miterlimit:4;stroke-opacity:1;stroke-dasharray:none"
       inkscape:export-filename="/home/rpelisse/Repositories/isep/middleware.hg/img/svg.png"
       inkscape:export-xdpi="61.445145"
       inkscape:export-ydpi="61.445145" />
    <path
       inkscape:connector-curvature="0"
       sodipodi:nodetypes="cc"
       id="path3210"
       d="m 33.468695,25.493712 30,30"
       style="fill:none;stroke:#000000;stroke-width:0.30000001;stroke-linecap:butt;stroke-linejoin:miter;stroke-miterlimit:4;stroke-opacity:1;stroke-dasharray:none"
       inkscape:export-filename="/home/rpelisse/Repositories/isep/middleware.hg/img/svg.png"
       inkscape:export-xdpi="61.445145"
       inkscape:export-ydpi="61.445145" />
    <path
       inkscape:connector-curvature="0"
       sodipodi:nodetypes="cc"
       id="path2449"
       d="m 35.968695,50.493712 -2.5,5"
       style="fill:#ff0000;fill-rule:evenodd;stroke:#ff8000;stroke-width:0.40000001;stroke-linecap:butt;stroke-linejoin:miter;stroke-miterlimit:4;stroke-opacity:1;stroke-dasharray:none"
       inkscape:export-filename="/home/rpelisse/Repositories/isep/middleware.hg/img/svg.png"
       inkscape:export-xdpi="61.445145"
       inkscape:export-ydpi="61.445145" />
    <path
       inkscape:connector-curvature="0"
       sodipodi:nodetypes="cc"
       id="path2445"
       d="m 58.468695,50.493712 5,5"
       style="fill:#ff0000;fill-rule:evenodd;stroke:#ff8000;stroke-width:0.40000001;stroke-linecap:butt;stroke-linejoin:miter;stroke-miterlimit:4;stroke-opacity:1;stroke-dasharray:none"
       inkscape:export-filename="/home/rpelisse/Repositories/isep/middleware.hg/img/svg.png"
       inkscape:export-xdpi="61.445145"
       inkscape:export-ydpi="61.445145" />
    <path
       inkscape:connector-curvature="0"
       sodipodi:nodetypes="cc"
       id="path2439"
       d="m 33.468695,25.493712 5,5"
       style="fill:#ff0000;fill-rule:evenodd;stroke:#ff8000;stroke-width:0.32865235;stroke-linecap:butt;stroke-linejoin:miter;stroke-miterlimit:4;stroke-opacity:1;stroke-dasharray:none"
       inkscape:export-filename="/home/rpelisse/Repositories/isep/middleware.hg/img/svg.png"
       inkscape:export-xdpi="61.445145"
       inkscape:export-ydpi="61.445145" />
    <path
       inkscape:connector-curvature="0"
       sodipodi:nodetypes="cc"
       id="path3346"
       d="m 63.468695,25.493712 0,5"
       style="fill:#ff0000;fill-rule:evenodd;stroke:#ff8000;stroke-width:0.40000001;stroke-linecap:butt;stroke-linejoin:miter;stroke-miterlimit:4;stroke-opacity:1;stroke-dasharray:none"
       inkscape:export-filename="/home/rpelisse/Repositories/isep/middleware.hg/img/svg.png"
       inkscape:export-xdpi="61.445145"
       inkscape:export-ydpi="61.445145" />
    <path
       inkscape:connector-curvature="0"
       sodipodi:nodetypes="cc"
       id="path3214"
       d="m 63.468695,25.493712 -45,30"
       style="fill:none;stroke:#000000;stroke-width:0.30000001;stroke-linecap:butt;stroke-linejoin:miter;stroke-miterlimit:4;stroke-opacity:1;stroke-dasharray:none"
       inkscape:export-filename="/home/rpelisse/Repositories/isep/middleware.hg/img/svg.png"
       inkscape:export-xdpi="61.445145"
       inkscape:export-ydpi="61.445145" />
    <path
       inkscape:connector-curvature="0"
       sodipodi:nodetypes="cc"
       id="path3350"
       d="m 63.468695,25.493712 -7.5,5"
       style="fill:#ff0000;fill-rule:evenodd;stroke:#ff8000;stroke-width:0.40000001;stroke-linecap:butt;stroke-linejoin:miter;stroke-miterlimit:4;stroke-opacity:1;stroke-dasharray:none"
       inkscape:export-filename="/home/rpelisse/Repositories/isep/middleware.hg/img/svg.png"
       inkscape:export-xdpi="61.445145"
       inkscape:export-ydpi="61.445145" />
    <path
       inkscape:connector-curvature="0"
       sodipodi:nodetypes="cc"
       id="path3216"
       d="m 33.468695,25.493712 -15,30"
       style="fill:none;stroke:#000000;stroke-width:0.30000001;stroke-linecap:butt;stroke-linejoin:miter;stroke-miterlimit:4;stroke-opacity:1;stroke-dasharray:none"
       inkscape:export-filename="/home/rpelisse/Repositories/isep/middleware.hg/img/svg.png"
       inkscape:export-xdpi="61.445145"
       inkscape:export-ydpi="61.445145" />
    <path
       inkscape:connector-curvature="0"
       sodipodi:nodetypes="cc"
       id="path3218"
       d="m 18.468695,25.493712 30,30"
       style="fill:none;stroke:#000000;stroke-width:0.30000001;stroke-linecap:butt;stroke-linejoin:miter;stroke-miterlimit:4;stroke-opacity:1;stroke-dasharray:none"
       inkscape:export-filename="/home/rpelisse/Repositories/isep/middleware.hg/img/svg.png"
       inkscape:export-xdpi="61.445145"
       inkscape:export-ydpi="61.445145" />
    <path
       inkscape:connector-curvature="0"
       sodipodi:nodetypes="cc"
       id="path2441"
       d="m 18.468695,25.493712 5,5"
       style="fill:#ff0000;fill-rule:evenodd;stroke:#ff8000;stroke-width:0.32865235;stroke-linecap:butt;stroke-linejoin:miter;stroke-miterlimit:4;stroke-opacity:1;stroke-dasharray:none"
       inkscape:export-filename="/home/rpelisse/Repositories/isep/middleware.hg/img/svg.png"
       inkscape:export-xdpi="61.445145"
       inkscape:export-ydpi="61.445145" />
    <path
       inkscape:connector-curvature="0"
       sodipodi:nodetypes="cc"
       id="path3226"
       d="m 63.468695,25.493712 -15,30"
       style="fill:none;stroke:#000000;stroke-width:0.30000001;stroke-linecap:butt;stroke-linejoin:miter;stroke-miterlimit:4;stroke-opacity:1;stroke-dasharray:none"
       inkscape:export-filename="/home/rpelisse/Repositories/isep/middleware.hg/img/svg.png"
       inkscape:export-xdpi="61.445145"
       inkscape:export-ydpi="61.445145" />
    <path
       inkscape:connector-curvature="0"
       sodipodi:nodetypes="cc"
       id="path2451"
       d="m 50.968695,50.493712 -2.5,5"
       style="fill:#ff0000;fill-rule:evenodd;stroke:#00c4ff;stroke-width:0.40000001;stroke-linecap:butt;stroke-linejoin:miter;stroke-miterlimit:4;stroke-opacity:1;stroke-dasharray:none"
       inkscape:export-filename="/home/rpelisse/Repositories/isep/middleware.hg/img/svg.png"
       inkscape:export-xdpi="61.445145"
       inkscape:export-ydpi="61.445145" />
    <path
       inkscape:connector-curvature="0"
       sodipodi:nodetypes="cc"
       id="path3220"
       d="m 3.4686953,25.493712 44.9999997,30"
       style="fill:none;stroke:#000000;stroke-width:0.30000001;stroke-linecap:butt;stroke-linejoin:miter;stroke-miterlimit:4;stroke-opacity:1;stroke-dasharray:none"
       inkscape:export-filename="/home/rpelisse/Repositories/isep/middleware.hg/img/svg.png"
       inkscape:export-xdpi="61.445145"
       inkscape:export-ydpi="61.445145" />
    <path
       inkscape:connector-curvature="0"
       sodipodi:nodetypes="cc"
       id="path3222"
       d="m 18.468695,25.493712 -14.9999997,30"
       style="fill:none;stroke:#000000;stroke-width:0.30000001;stroke-linecap:butt;stroke-linejoin:miter;stroke-miterlimit:4;stroke-opacity:1;stroke-dasharray:none"
       inkscape:export-filename="/home/rpelisse/Repositories/isep/middleware.hg/img/svg.png"
       inkscape:export-xdpi="61.445145"
       inkscape:export-ydpi="61.445145" />
    <path
       inkscape:connector-curvature="0"
       sodipodi:nodetypes="cc"
       id="path3224"
       d="m 3.4686953,25.493712 14.9999997,30"
       style="fill:none;stroke:#000000;stroke-width:0.30000001;stroke-linecap:butt;stroke-linejoin:miter;stroke-miterlimit:4;stroke-opacity:1;stroke-dasharray:none"
       inkscape:export-filename="/home/rpelisse/Repositories/isep/middleware.hg/img/svg.png"
       inkscape:export-xdpi="61.445145"
       inkscape:export-ydpi="61.445145" />
    <path
       inkscape:connector-curvature="0"
       sodipodi:nodetypes="cc"
       id="path3231"
       d="m 43.468695,50.493712 5,5"
       style="fill:#ff0000;fill-rule:evenodd;stroke:#00c4ff;stroke-width:0.40000001;stroke-linecap:butt;stroke-linejoin:miter;stroke-miterlimit:4;stroke-opacity:1;stroke-dasharray:none"
       inkscape:export-filename="/home/rpelisse/Repositories/isep/middleware.hg/img/svg.png"
       inkscape:export-xdpi="61.445145"
       inkscape:export-ydpi="61.445145" />
    <path
       inkscape:connector-curvature="0"
       sodipodi:nodetypes="cc"
       id="path3348"
       d="m 63.468695,25.493712 -2.5,5"
       style="fill:#ff0000;fill-rule:evenodd;stroke:#ff8000;stroke-width:0.40000001;stroke-linecap:butt;stroke-linejoin:miter;stroke-miterlimit:4;stroke-opacity:1;stroke-dasharray:none"
       inkscape:export-filename="/home/rpelisse/Repositories/isep/middleware.hg/img/svg.png"
       inkscape:export-xdpi="61.445145"
       inkscape:export-ydpi="61.445145" />
    <rect
       rx="0.61260098"
       ry="0.70011538"
       y="-23.318693"
       x="15.643712"
       height="9.6999998"
       width="9.6999998"
       id="rect2382"
       style="fill:url(#radialGradient3188);fill-opacity:1;fill-rule:evenodd;stroke:#ff00ff;stroke-width:0.30000001;stroke-linecap:round;stroke-linejoin:miter;stroke-miterlimit:4;stroke-opacity:1;stroke-dasharray:none;stroke-dashoffset:0"
       transform="matrix(0,1,-1,0,0,0)"
       inkscape:export-filename="/home/rpelisse/Repositories/isep/middleware.hg/img/svg.png"
       inkscape:export-xdpi="61.445145"
       inkscape:export-ydpi="61.445145" />
    <path
       inkscape:connector-curvature="0"
       sodipodi:nodetypes="cc"
       id="path2433"
       d="m 3.4686953,25.493712 7.4999997,5"
       style="fill:#ff0000;fill-rule:evenodd;stroke:#ff8000;stroke-width:0.40000001;stroke-linecap:butt;stroke-linejoin:miter;stroke-miterlimit:4;stroke-opacity:1;stroke-dasharray:none"
       inkscape:export-filename="/home/rpelisse/Repositories/isep/middleware.hg/img/svg.png"
       inkscape:export-xdpi="61.445145"
       inkscape:export-ydpi="61.445145" />
    <rect
       rx="0.61260098"
       ry="0.70011538"
       y="-8.3186941"
       x="15.643712"
       height="9.6999998"
       width="9.6999998"
       id="rect3162"
       style="fill:url(#radialGradient3184);fill-opacity:1;fill-rule:evenodd;stroke:#ff00ff;stroke-width:0.30000001;stroke-linecap:round;stroke-linejoin:miter;stroke-miterlimit:4;stroke-opacity:1;stroke-dasharray:none;stroke-dashoffset:0"
       transform="matrix(0,1,-1,0,0,0)"
       inkscape:export-filename="/home/rpelisse/Repositories/isep/middleware.hg/img/svg.png"
       inkscape:export-xdpi="61.445145"
       inkscape:export-ydpi="61.445145" />
    <rect
       rx="0.61260098"
       ry="0.70011538"
       y="-38.318695"
       x="15.643712"
       height="9.6999998"
       width="9.6999998"
       id="rect3166"
       style="fill:url(#radialGradient3181);fill-opacity:1;fill-rule:evenodd;stroke:#ff00ff;stroke-width:0.30000001;stroke-linecap:round;stroke-linejoin:miter;stroke-miterlimit:4;stroke-opacity:1;stroke-dasharray:none;stroke-dashoffset:0"
       transform="matrix(0,1,-1,0,0,0)"
       inkscape:export-filename="/home/rpelisse/Repositories/isep/middleware.hg/img/svg.png"
       inkscape:export-xdpi="61.445145"
       inkscape:export-ydpi="61.445145" />
    <rect
       rx="0.61260098"
       ry="0.70011538"
       y="-68.309151"
       x="15.643712"
       height="9.6999998"
       width="9.6999998"
       id="rect3170"
       style="fill:url(#radialGradient3178);fill-opacity:1;fill-rule:evenodd;stroke:#ff00ff;stroke-width:0.30000001;stroke-linecap:round;stroke-linejoin:miter;stroke-miterlimit:4;stroke-opacity:1;stroke-dasharray:none;stroke-dashoffset:0"
       transform="matrix(0,1,-1,0,0,0)"
       inkscape:export-filename="/home/rpelisse/Repositories/isep/middleware.hg/img/svg.png"
       inkscape:export-xdpi="61.445145"
       inkscape:export-ydpi="61.445145" />
    <path
       inkscape:connector-curvature="0"
       sodipodi:nodetypes="cc"
       id="path3247"
       d="m 10.968695,50.493712 -7.4999997,5"
       style="fill:#ff0000;fill-rule:evenodd;stroke:#80ff80;stroke-width:0.40000001;stroke-linecap:butt;stroke-linejoin:miter;stroke-miterlimit:4;stroke-opacity:1;stroke-dasharray:none"
       inkscape:export-filename="/home/rpelisse/Repositories/isep/middleware.hg/img/svg.png"
       inkscape:export-xdpi="61.445145"
       inkscape:export-ydpi="61.445145" />
    <path
       inkscape:connector-curvature="0"
       sodipodi:nodetypes="cc"
       id="path3249"
       d="m 5.9686953,50.493712 -2.5,5"
       style="fill:#ff0000;fill-rule:evenodd;stroke:#80ff80;stroke-width:0.40000001;stroke-linecap:butt;stroke-linejoin:miter;stroke-miterlimit:4;stroke-opacity:1;stroke-dasharray:none"
       inkscape:export-filename="/home/rpelisse/Repositories/isep/middleware.hg/img/svg.png"
       inkscape:export-xdpi="61.445145"
       inkscape:export-ydpi="61.445145" />
    <rect
       rx="0.61260098"
       ry="0.70011538"
       y="-8.3186941"
       x="55.643711"
       height="9.6999998"
       width="9.6999998"
       id="rect3178"
       style="fill:url(#radialGradient3173);fill-opacity:1;fill-rule:evenodd;stroke:#0000ff;stroke-width:0.30000001;stroke-linecap:round;stroke-linejoin:miter;stroke-miterlimit:4;stroke-opacity:1;stroke-dasharray:none;stroke-dashoffset:0"
       transform="matrix(0,1,-1,0,0,0)"
       inkscape:export-filename="/home/rpelisse/Repositories/isep/middleware.hg/img/svg.png"
       inkscape:export-xdpi="61.445145"
       inkscape:export-ydpi="61.445145" />
    <rect
       rx="0.61260098"
       ry="0.70011538"
       y="-53.318695"
       x="15.643712"
       height="9.6999998"
       width="9.6999998"
       id="rect3174"
       style="fill:url(#radialGradient3169);fill-opacity:1;fill-rule:evenodd;stroke:#ff00ff;stroke-width:0.30000001;stroke-linecap:round;stroke-linejoin:miter;stroke-miterlimit:4;stroke-opacity:1;stroke-dasharray:none;stroke-dashoffset:0"
       transform="matrix(0,1,-1,0,0,0)"
       inkscape:export-filename="/home/rpelisse/Repositories/isep/middleware.hg/img/svg.png"
       inkscape:export-xdpi="61.445145"
       inkscape:export-ydpi="61.445145" />
    <path
       inkscape:connector-curvature="0"
       sodipodi:nodetypes="cc"
       id="path3233"
       d="m 40.968695,50.493712 7.5,5"
       style="fill:#ff0000;fill-rule:evenodd;stroke:#00c4ff;stroke-width:0.40000001;stroke-linecap:butt;stroke-linejoin:miter;stroke-miterlimit:4;stroke-opacity:1;stroke-dasharray:none"
       inkscape:export-filename="/home/rpelisse/Repositories/isep/middleware.hg/img/svg.png"
       inkscape:export-xdpi="61.445145"
       inkscape:export-ydpi="61.445145" />
    <rect
       rx="0.61260098"
       ry="0.70011538"
       y="-53.318695"
       x="55.643711"
       height="9.6999998"
       width="9.6999998"
       id="rect3188"
       style="fill:url(#radialGradient3165);fill-opacity:1;fill-rule:evenodd;stroke:#0000ff;stroke-width:0.30000001;stroke-linecap:round;stroke-linejoin:miter;stroke-miterlimit:4;stroke-opacity:1;stroke-dasharray:none;stroke-dashoffset:0"
       transform="matrix(0,1,-1,0,0,0)"
       inkscape:export-filename="/home/rpelisse/Repositories/isep/middleware.hg/img/svg.png"
       inkscape:export-xdpi="61.445145"
       inkscape:export-ydpi="61.445145" />
    <rect
       rx="0.61260098"
       ry="0.70011538"
       y="-38.318695"
       x="55.643711"
       height="9.6999998"
       width="9.6999998"
       id="rect3192"
       style="fill:url(#radialGradient3162);fill-opacity:1;fill-rule:evenodd;stroke:#0000ff;stroke-width:0.30000001;stroke-linecap:round;stroke-linejoin:miter;stroke-miterlimit:4;stroke-opacity:1;stroke-dasharray:none;stroke-dashoffset:0"
       transform="matrix(0,1,-1,0,0,0)"
       inkscape:export-filename="/home/rpelisse/Repositories/isep/middleware.hg/img/svg.png"
       inkscape:export-xdpi="61.445145"
       inkscape:export-ydpi="61.445145" />
    <path
       inkscape:connector-curvature="0"
       sodipodi:nodetypes="cc"
       id="path3241"
       d="m 25.968695,50.493712 -7.5,5"
       style="fill:#ff6600;fill-rule:evenodd;stroke:#8000ff;stroke-width:0.40000001;stroke-linecap:butt;stroke-linejoin:miter;stroke-miterlimit:4;stroke-opacity:1;stroke-dasharray:none"
       inkscape:export-filename="/home/rpelisse/Repositories/isep/middleware.hg/img/svg.png"
       inkscape:export-xdpi="61.445145"
       inkscape:export-ydpi="61.445145" />
    <path
       inkscape:connector-curvature="0"
       sodipodi:nodetypes="cc"
       id="path3239"
       d="m 20.968695,50.493712 -2.5,5"
       style="fill:#ff0000;fill-rule:evenodd;stroke:#8000ff;stroke-width:0.40000001;stroke-linecap:butt;stroke-linejoin:miter;stroke-miterlimit:4;stroke-opacity:1;stroke-dasharray:none"
       inkscape:export-filename="/home/rpelisse/Repositories/isep/middleware.hg/img/svg.png"
       inkscape:export-xdpi="61.445145"
       inkscape:export-ydpi="61.445145" />
    <path
       inkscape:connector-curvature="0"
       sodipodi:nodetypes="cc"
       id="path3245"
       d="m 15.968695,50.493712 2.5,5"
       style="fill:#ff0000;fill-rule:evenodd;stroke:#8000ff;stroke-width:0.40000001;stroke-linecap:butt;stroke-linejoin:miter;stroke-miterlimit:4;stroke-opacity:1;stroke-dasharray:none"
       inkscape:export-filename="/home/rpelisse/Repositories/isep/middleware.hg/img/svg.png"
       inkscape:export-xdpi="61.445145"
       inkscape:export-ydpi="61.445145" />
    <rect
       rx="0.61260098"
       ry="0.70011538"
       y="-23.318693"
       x="55.643711"
       height="9.6999998"
       width="9.6999998"
       id="rect3196"
       style="fill:url(#radialGradient3156);fill-opacity:1;fill-rule:evenodd;stroke:#0000ff;stroke-width:0.30000001;stroke-linecap:round;stroke-linejoin:miter;stroke-miterlimit:4;stroke-opacity:1;stroke-dasharray:none;stroke-dashoffset:0"
       transform="matrix(0,1,-1,0,0,0)"
       inkscape:export-filename="/home/rpelisse/Repositories/isep/middleware.hg/img/svg.png"
       inkscape:export-xdpi="61.445145"
       inkscape:export-ydpi="61.445145" />
    <rect
       rx="0.61260098"
       ry="0.70011538"
       y="-68.318695"
       x="55.643711"
       height="9.6999998"
       width="9.6999998"
       id="rect3200"
       style="fill:url(#radialGradient3153);fill-opacity:1;fill-rule:evenodd;stroke:#0000ff;stroke-width:0.30000001;stroke-linecap:round;stroke-linejoin:miter;stroke-miterlimit:4;stroke-opacity:1;stroke-dasharray:none;stroke-dashoffset:0"
       transform="matrix(0,1,-1,0,0,0)"
       inkscape:export-filename="/home/rpelisse/Repositories/isep/middleware.hg/img/svg.png"
       inkscape:export-xdpi="61.445145"
       inkscape:export-ydpi="61.445145" />
    <path
       inkscape:connector-curvature="0"
       sodipodi:nodetypes="cc"
       id="path3344"
       d="m 63.468695,50.493712 0,5"
       style="fill:#ff0000;fill-rule:evenodd;stroke:#ff8000;stroke-width:0.40000001;stroke-linecap:butt;stroke-linejoin:miter;stroke-miterlimit:4;stroke-opacity:1;stroke-dasharray:none"
       inkscape:export-filename="/home/rpelisse/Repositories/isep/middleware.hg/img/svg.png"
       inkscape:export-xdpi="61.445145"
       inkscape:export-ydpi="61.445145" />
    <path
       inkscape:connector-curvature="0"
       sodipodi:nodetypes="cc"
       id="path2429"
       d="m 33.468695,25.493712 -2.5,5"
       style="fill:#ff0000;fill-rule:evenodd;stroke:#ff8000;stroke-width:0.40000001;stroke-linecap:butt;stroke-linejoin:miter;stroke-miterlimit:4;stroke-opacity:1;stroke-dasharray:none"
       inkscape:export-filename="/home/rpelisse/Repositories/isep/middleware.hg/img/svg.png"
       inkscape:export-xdpi="61.445145"
       inkscape:export-ydpi="61.445145" />
    <path
       inkscape:connector-curvature="0"
       sodipodi:nodetypes="cc"
       id="path2431"
       d="m 18.468695,25.493712 -2.5,5"
       style="fill:#ff0000;fill-rule:evenodd;stroke:#ff8000;stroke-width:0.40000001;stroke-linecap:butt;stroke-linejoin:miter;stroke-miterlimit:4;stroke-opacity:1;stroke-dasharray:none"
       inkscape:export-filename="/home/rpelisse/Repositories/isep/middleware.hg/img/svg.png"
       inkscape:export-xdpi="61.445145"
       inkscape:export-ydpi="61.445145" />
    <rect
       rx="1.2441485"
       ry="5.0307264"
       y="-68.318687"
       x="30.643713"
       height="69.699997"
       width="19.700001"
       id="rect3338"
       style="opacity:0.9;fill:url(#radialGradient3147);fill-opacity:1;fill-rule:evenodd;stroke:#ffff00;stroke-width:0.5;stroke-linecap:round;stroke-linejoin:miter;stroke-miterlimit:4;stroke-opacity:1;stroke-dasharray:none;stroke-dashoffset:0"
       transform="matrix(0,1,-1,0,0,0)"
       inkscape:export-filename="/home/rpelisse/Repositories/isep/middleware.hg/img/svg.png"
       inkscape:export-xdpi="61.445145"
       inkscape:export-ydpi="61.445145" />
    <path
       inkscape:connector-curvature="0"
       sodipodi:nodetypes="cc"
       id="path2443"
       d="m 3.4686953,25.493712 2.5,5"
       style="fill:#ff0000;fill-rule:evenodd;stroke:#ff8000;stroke-width:0.40000001;stroke-linecap:butt;stroke-linejoin:miter;stroke-miterlimit:4;stroke-opacity:1;stroke-dasharray:none"
       inkscape:export-filename="/home/rpelisse/Repositories/isep/middleware.hg/img/svg.png"
       inkscape:export-xdpi="61.445145"
       inkscape:export-ydpi="61.445145" />
    <rect
       style="fill:#ffffff;fill-opacity:1;fill-rule:evenodd;stroke:#000000;stroke-width:0.30000001;stroke-linecap:round;stroke-linejoin:miter;stroke-miterlimit:4;stroke-opacity:1;stroke-dasharray:none;stroke-dashoffset:0"
       id="rect3251"
       width="49.207329"
       height="10.7"
       x="15.643712"
       y="11.788434"
       ry="0.7722922"
       rx="3.107676"
       transform="matrix(0,1,-1,0,0,0)"
       inkscape:export-filename="/home/rpelisse/Repositories/isep/middleware.hg/img/svg.png"
       inkscape:export-xdpi="61.445145"
       inkscape:export-ydpi="61.445145" />
    <path
       inkscape:connector-curvature="0"
       style="fill:none;stroke:#000000;stroke-width:0.30000001;stroke-linecap:butt;stroke-linejoin:miter;stroke-miterlimit:4;stroke-opacity:1;stroke-dasharray:none;marker-end:url(#Arrow1Lend)"
       d="m -11.881305,27.993713 12.50000028,0"
       id="path3261"
       sodipodi:nodetypes="cc"
       inkscape:export-filename="/home/rpelisse/Repositories/isep/middleware.hg/img/svg.png"
       inkscape:export-xdpi="61.445145"
       inkscape:export-ydpi="61.445145" />
    <path
       inkscape:connector-curvature="0"
       style="fill:none;stroke:#000000;stroke-width:0.30000001;stroke-linecap:butt;stroke-linejoin:miter;stroke-miterlimit:4;stroke-opacity:1;stroke-dasharray:none;marker-end:url(#Arrow1Lend)"
       d="m -11.881305,52.993713 12.50000028,0"
       id="path4564"
       sodipodi:nodetypes="cc"
       inkscape:export-filename="/home/rpelisse/Repositories/isep/middleware.hg/img/svg.png"
       inkscape:export-xdpi="61.445145"
       inkscape:export-ydpi="61.445145" />
    <path
       inkscape:connector-curvature="0"
       style="fill:#ff0000;fill-rule:evenodd;stroke:#ff8000;stroke-width:0.40000001;stroke-linecap:butt;stroke-linejoin:miter;stroke-miterlimit:4;stroke-opacity:1;stroke-dasharray:none"
       d="m -15.331305,17.693713 0,5"
       id="path4572"
       sodipodi:nodetypes="cc"
       inkscape:export-filename="/home/rpelisse/Repositories/isep/middleware.hg/img/svg.png"
       inkscape:export-xdpi="61.445145"
       inkscape:export-ydpi="61.445145" />
    <path
       inkscape:connector-curvature="0"
       style="font-size:3.95366788px;font-style:normal;font-variant:normal;font-weight:normal;font-stretch:normal;text-align:start;line-height:125%;writing-mode:lr-tb;text-anchor:start;fill:#ff8000;fill-opacity:1;stroke:none;font-family:Dotum;-inkscape-font-specification:Dotum"
       d="m -15.585355,23.493713 -0.01931,0 c -0.296011,0 -0.52381,0.09138 -0.683398,0.274131 -0.162162,0.182754 -0.243243,0.445302 -0.243243,0.787645 0,0.301157 0.07465,0.539252 0.223938,0.714286 0.149292,0.17503 0.350064,0.262546 0.602316,0.262548 0.229086,-2e-6 0.407979,-0.07207 0.53668,-0.216216 0.120982,-0.136424 0.220081,-0.361649 0.297302,-0.675676 l 0.08108,-0.332046 c 0.04376,-0.169885 0.102959,-0.29215 0.177606,-0.366795 0.07722,-0.07465 0.181466,-0.11197 0.312742,-0.11197 0.169882,0 0.301156,0.05534 0.393822,0.166024 0.09266,0.113255 0.138994,0.275417 0.138996,0.486486 -2e-6,0.218789 -0.05406,0.388673 -0.162162,0.509653 -0.10811,0.12355 -0.263837,0.186613 -0.467181,0.189189 l 0,0.27027 c 0.272842,-0.0052 0.485197,-0.09138 0.637065,-0.258687 0.151864,-0.167312 0.227797,-0.400259 0.2278,-0.698842 -3e-6,-0.288289 -0.07079,-0.517375 -0.212356,-0.687259 -0.138998,-0.164736 -0.323039,-0.247104 -0.552123,-0.247104 -0.218792,0 -0.387389,0.06306 -0.505792,0.189189 -0.102961,0.113256 -0.190477,0.30888 -0.262548,0.586873 l -0.06564,0.266409 c -0.06178,0.247103 -0.131275,0.4157 -0.208494,0.505792 -0.08752,0.105532 -0.220078,0.158299 -0.397684,0.158301 -0.169884,-2e-6 -0.305019,-0.06307 -0.405405,-0.189189 -0.10296,-0.126128 -0.15444,-0.299873 -0.15444,-0.521236 0,-0.252253 0.06306,-0.447877 0.189189,-0.586872 0.123555,-0.136423 0.2973,-0.204634 0.521239,-0.204634 l 0,-0.27027 z m 0.555984,2.513513 c -0.458173,0 -0.823681,0.113256 -1.096525,0.339769 -0.27027,0.223937 -0.405405,0.51866 -0.405405,0.88417 0,0.378376 0.135135,0.680821 0.405405,0.907336 0.27027,0.231657 0.635778,0.347487 1.096525,0.34749 0.463319,-3e-6 0.830114,-0.115833 1.100386,-0.34749 0.26512,-0.226515 0.397681,-0.52896 0.397684,-0.907336 -3e-6,-0.368084 -0.132564,-0.662807 -0.397684,-0.88417 -0.272846,-0.226513 -0.639641,-0.339769 -1.100386,-0.339769 l 0,0 z m 0,0.258688 c 0.391247,-10e-7 0.702701,0.09138 0.934363,0.274131 0.221362,0.175031 0.332044,0.405404 0.332046,0.69112 -2e-6,0.301156 -0.110684,0.540538 -0.332046,0.718146 -0.226514,0.185326 -0.537968,0.27799 -0.934363,0.277993 -0.393823,-3e-6 -0.705277,-0.09267 -0.934363,-0.277993 -0.223938,-0.177608 -0.335907,-0.41699 -0.335907,-0.718146 0,-0.28829 0.111969,-0.51995 0.335907,-0.694981 0.23166,-0.180181 0.543114,-0.270271 0.934363,-0.27027 l 0,0 z m -1.420849,2.505791 0,0.274132 0.868726,0.324324 0,1.281853 -0.868726,0.316602 0,0.274132 2.845559,-1.081081 0,-0.308881 -2.845559,-1.081081 z m 1.104247,0.687259 1.46332,0.544401 -1.46332,0.555985 0,-1.100386 z m -1.104247,2.285714 0,0.258688 1.23166,0 0,0.606177 c -10e-7,0.352637 0.06821,0.617759 0.204633,0.795367 0.133847,0.17503 0.335906,0.262546 0.606178,0.262548 0.267694,-2e-6 0.468466,-0.07851 0.602316,-0.235521 0.133846,-0.154442 0.20077,-0.387389 0.200772,-0.698842 l 0,-0.988417 -2.845559,0 z m 1.467181,0.258688 1.142857,0 0,0.722007 c -2e-6,0.229085 -0.04505,0.398969 -0.135135,0.509653 -0.09009,0.11068 -0.231662,0.166021 -0.42471,0.166023 -0.208496,-2e-6 -0.359075,-0.06564 -0.451738,-0.196911 -0.08752,-0.123554 -0.131275,-0.320465 -0.131274,-0.590734 l 0,-0.610038 z"
       id="text4580"
       inkscape:export-filename="/home/rpelisse/Repositories/isep/middleware.hg/img/svg.png"
       inkscape:export-xdpi="61.445145"
       inkscape:export-ydpi="61.445145" />
    <path
       inkscape:connector-curvature="0"
       style="fill:#ff0000;fill-rule:evenodd;stroke:#00c4ff;stroke-width:0.40000001;stroke-linecap:butt;stroke-linejoin:miter;stroke-miterlimit:4;stroke-opacity:1;stroke-dasharray:none"
       d="m -19.331305,17.693713 0,5"
       id="path4574"
       sodipodi:nodetypes="cc"
       inkscape:export-filename="/home/rpelisse/Repositories/isep/middleware.hg/img/svg.png"
       inkscape:export-xdpi="61.445145"
       inkscape:export-ydpi="61.445145" />
    <path
       inkscape:connector-curvature="0"
       style="font-size:4.16824961px;font-style:normal;font-variant:normal;font-weight:normal;font-stretch:normal;text-align:start;line-height:125%;writing-mode:lr-tb;text-anchor:start;fill:#00c4ff;fill-opacity:1;stroke:none;font-family:Dotum;-inkscape-font-specification:Dotum"
       d="m -20.531301,23.493713 0,0.272727 1.339213,0 0,0.875169 c -2e-6,0.241518 -0.04071,0.40027 -0.122117,0.476256 -0.0787,0.07327 -0.249662,0.1194 -0.51289,0.138398 l -0.394844,0.03257 c -0.07327,0.0054 -0.134329,0.01357 -0.183175,0.02442 -0.05156,0.01085 -0.09362,0.02442 -0.126187,0.04071 l 0,0.305293 0.04071,0 c 0.02442,-0.02714 0.05834,-0.04749 0.101764,-0.06106 0.04613,-0.019 0.104477,-0.03121 0.175034,-0.03664 l 0.451832,-0.03256 c 0.222522,-0.02171 0.373133,-0.05021 0.451831,-0.08548 0.113975,-0.05156 0.194029,-0.149256 0.240163,-0.29308 0.05699,0.154679 0.147896,0.274082 0.272728,0.358209 0.127542,0.08412 0.28358,0.126185 0.468113,0.126187 0.151966,-2e-6 0.286294,-0.03257 0.402986,-0.09769 0.116686,-0.06242 0.207595,-0.15197 0.272727,-0.268657 0.05427,-0.0977 0.08955,-0.214384 0.105834,-0.350068 0.01085,-0.09227 0.01628,-0.234737 0.01628,-0.427408 l 0,-0.997286 -3,0 z m 1.587516,0.272727 1.16418,0 0,0.781547 c -3e-6,0.146538 -0.0041,0.255086 -0.01221,0.325644 -0.01628,0.100405 -0.04749,0.18453 -0.09362,0.252375 -0.04614,0.07055 -0.108551,0.124828 -0.187245,0.162822 -0.0787,0.0407 -0.166896,0.06106 -0.264587,0.06106 -0.217098,-2e-6 -0.373136,-0.06377 -0.468114,-0.191316 -0.09227,-0.124833 -0.1384,-0.32429 -0.138399,-0.598372 l 0,-0.793758 z m -1.587516,2.584803 0,0.199457 2.540027,0 -2.540027,1.554953 0,0.29715 3,0 0,-0.272727 -2.523745,0 2.523745,-1.546811 0,-0.305292 -3,0 0,0.07327 z m 0,2.869742 0,0.272727 3,0 0,-0.272727 -3,0 z"
       id="text4584"
       inkscape:export-filename="/home/rpelisse/Repositories/isep/middleware.hg/img/svg.png"
       inkscape:export-xdpi="61.445145"
       inkscape:export-ydpi="61.445145" />
    <path
       inkscape:connector-curvature="0"
       style="fill:#ff0000;fill-rule:evenodd;stroke:#8000ff;stroke-width:0.40000001;stroke-linecap:butt;stroke-linejoin:miter;stroke-miterlimit:4;stroke-opacity:1;stroke-dasharray:none"
       d="m -15.331305,45.693712 0,5"
       id="path4578"
       sodipodi:nodetypes="cc"
       inkscape:export-filename="/home/rpelisse/Repositories/isep/middleware.hg/img/svg.png"
       inkscape:export-xdpi="61.445145"
       inkscape:export-ydpi="61.445145" />
    <path
       inkscape:connector-curvature="0"
       style="font-size:3.95366788px;font-style:normal;font-variant:normal;font-weight:normal;font-stretch:normal;text-align:start;line-height:125%;writing-mode:lr-tb;text-anchor:start;fill:#8000ff;fill-opacity:1;stroke:none;font-family:Dotum;-inkscape-font-specification:Dotum"
       d="m -16.45022,51.493709 0,0.258688 1.27027,0 0,0.830116 c -1e-6,0.229084 -0.03861,0.379663 -0.11583,0.451737 -0.07465,0.0695 -0.236809,0.113254 -0.486487,0.131274 l -0.374517,0.03089 c -0.0695,0.0051 -0.127413,0.01287 -0.173745,0.02317 -0.04891,0.01029 -0.0888,0.02316 -0.119691,0.03861 l 0,0.289576 0.03861,0 c 0.02317,-0.02574 0.05534,-0.04505 0.09653,-0.05792 0.04376,-0.01802 0.0991,-0.0296 0.166023,-0.03475 l 0.428571,-0.03089 c 0.211068,-0.02059 0.353925,-0.04762 0.428572,-0.08108 0.108107,-0.04891 0.18404,-0.141572 0.227799,-0.277992 0.05405,0.146716 0.140282,0.259972 0.258687,0.339768 0.120977,0.07979 0.268982,0.119689 0.444016,0.119691 0.144142,-2e-6 0.271555,-0.03089 0.382239,-0.09266 0.11068,-0.0592 0.196909,-0.144146 0.258687,-0.254826 0.05148,-0.09267 0.08494,-0.203348 0.100386,-0.332046 0.01029,-0.08752 0.01544,-0.222653 0.01544,-0.405406 l 0,-0.945946 -2.845559,0 z m 1.505791,0.258688 1.104247,0 0,0.741312 c -2e-6,0.138995 -0.0039,0.241955 -0.01158,0.308881 -0.01545,0.09524 -0.04505,0.17503 -0.0888,0.239382 -0.04376,0.06692 -0.102962,0.118402 -0.177606,0.15444 -0.07465,0.03861 -0.158303,0.05791 -0.250965,0.05792 -0.205922,-2e-6 -0.353927,-0.06049 -0.444016,-0.181467 -0.08752,-0.118406 -0.131275,-0.307595 -0.131274,-0.567568 l 0,-0.752895 z m -1.505791,2.382239 0,1.911197 0.235521,0 0,-1.65251 1.108108,0 0,1.467182 0.235521,0 0,-1.467182 1.030888,0 0,1.606178 0.235521,0 0,-1.864865 -2.845559,0 z m 0.864865,2.366795 -0.01931,0 c -0.296011,0 -0.52381,0.09138 -0.683398,0.274131 -0.162162,0.182754 -0.243243,0.445302 -0.243243,0.787645 0,0.301157 0.07465,0.539252 0.223938,0.714286 0.149292,0.17503 0.350064,0.262546 0.602316,0.262548 0.229086,-2e-6 0.407979,-0.07207 0.53668,-0.216216 0.120977,-0.136424 0.220076,-0.361649 0.297297,-0.675676 l 0.08108,-0.332046 c 0.04376,-0.169885 0.102959,-0.29215 0.177606,-0.366795 0.07722,-0.07465 0.181466,-0.11197 0.312742,-0.11197 0.169882,0 0.301156,0.05534 0.393822,0.166024 0.09266,0.113255 0.138994,0.275417 0.138996,0.486486 -2e-6,0.218789 -0.05406,0.388673 -0.162162,0.509653 -0.10811,0.12355 -0.263837,0.186613 -0.467181,0.189189 l 0,0.27027 c 0.272842,-0.0052 0.485197,-0.09138 0.637065,-0.258687 0.151864,-0.167312 0.227797,-0.400259 0.2278,-0.698842 -3e-6,-0.288289 -0.07079,-0.517375 -0.212356,-0.687259 -0.138998,-0.164736 -0.323039,-0.247104 -0.552123,-0.247104 -0.218792,0 -0.387389,0.06306 -0.505792,0.189189 -0.102961,0.113256 -0.190477,0.30888 -0.262548,0.586873 l -0.06564,0.266409 c -0.06178,0.247103 -0.131275,0.4157 -0.208494,0.505792 -0.08752,0.105532 -0.220078,0.158299 -0.397684,0.158301 -0.169884,-2e-6 -0.305019,-0.06306 -0.405405,-0.189189 -0.10296,-0.126128 -0.15444,-0.299873 -0.15444,-0.521236 0,-0.252253 0.06306,-0.447877 0.189189,-0.586872 0.123561,-0.136423 0.297306,-0.204634 0.521245,-0.204634 l 0,-0.27027 z m -0.864865,3.254827 0,0.258687 2.610038,0 0,0.888031 0.235521,0 0,-2.030888 -0.235521,0 0,0.88417 -2.610038,0 z"
       id="text2473"
       inkscape:export-filename="/home/rpelisse/Repositories/isep/middleware.hg/img/svg.png"
       inkscape:export-xdpi="61.445145"
       inkscape:export-ydpi="61.445145" />
    <path
       inkscape:connector-curvature="0"
       style="fill:#ff0000;fill-rule:evenodd;stroke:#80ff80;stroke-width:0.40000001;stroke-linecap:butt;stroke-linejoin:miter;stroke-miterlimit:4;stroke-opacity:1;stroke-dasharray:none"
       d="m -19.331304,45.693712 0,5"
       id="path4576"
       sodipodi:nodetypes="cc"
       inkscape:export-filename="/home/rpelisse/Repositories/isep/middleware.hg/img/svg.png"
       inkscape:export-xdpi="61.445145"
       inkscape:export-ydpi="61.445145" />
    <path
       inkscape:connector-curvature="0"
       style="font-size:4.05277061px;font-style:normal;font-variant:normal;font-weight:normal;font-stretch:normal;text-align:start;line-height:125%;writing-mode:lr-tb;text-anchor:start;fill:#80ff80;fill-opacity:1;stroke:none;font-family:Dotum;-inkscape-font-specification:Dotum"
       d="m -19.553729,51.49371 -0.209763,0 c -0.253298,0 -0.444591,0.06201 -0.573879,0.186016 -0.129287,0.126649 -0.193931,0.313984 -0.193931,0.562006 0,0.255935 0.0686,0.453824 0.205805,0.593667 0.137203,0.13984 0.332453,0.209761 0.585752,0.209763 l 2.208443,0 0,-0.26913 -2.145119,0 c -0.218998,-10e-7 -0.37467,-0.03958 -0.467018,-0.118733 -0.09763,-0.07916 -0.146438,-0.215041 -0.146438,-0.407652 0,-0.166227 0.04617,-0.290238 0.138522,-0.372032 0.09235,-0.07916 0.229551,-0.118733 0.41161,-0.118733 l 0.186016,0 0,-0.265172 z m -0.89446,2.378628 0,0.193932 2.469658,0 -2.469658,1.511873 0,0.288918 2.916887,0 0,-0.265171 -2.453826,0 2.453826,-1.503958 0,-0.296834 -2.916887,0 0,0.07124 z m 0,2.790238 0,0.265172 2.916887,0 0,-0.265172 -2.916887,0 z"
       id="text3259"
       inkscape:export-filename="/home/rpelisse/Repositories/isep/middleware.hg/img/svg.png"
       inkscape:export-xdpi="61.445145"
       inkscape:export-ydpi="61.445145" />
    <path
       inkscape:connector-curvature="0"
       id="text3263"
       d="m 44.891307,17.017047 -0.148325,0.148325 c -0.179109,0.179109 -0.270526,0.358221 -0.274257,0.537329 -0.0019,0.180968 0.08489,0.359148 0.260264,0.534525 0.180977,0.180976 0.369415,0.272397 0.565314,0.274262 0.195899,0.0019 0.383402,-0.08676 0.562512,-0.265867 l 1.561605,-1.561605 -0.190304,-0.190304 -1.516828,1.516828 c -0.154855,0.154855 -0.292919,0.236945 -0.414187,0.246278 -0.125006,0.01306 -0.255603,-0.04851 -0.391799,-0.184705 -0.117543,-0.117542 -0.172581,-0.237881 -0.165115,-0.361015 0.0093,-0.121275 0.07835,-0.246279 0.20709,-0.375014 l 0.131533,-0.131533 -0.187503,-0.187504 z m 0.758415,2.023372 0.198697,0.198697 0.864764,-0.394595 0.929124,0.929124 -0.400195,0.859164 0.198697,0.198697 1.278949,-2.846152 -0.223884,-0.223884 -2.846152,1.278949 z m 1.298535,-0.30225 1.455261,-0.66606 -0.657666,1.463655 -0.797595,-0.797595 z m 1.348915,2.9497 0.204297,0.204297 2.776191,-1.34891 -0.190303,-0.190303 -2.445959,1.197787 1.200588,-2.443158 -0.198697,-0.198697 -1.346117,2.778984 z m 0.990699,0.990699 0.198697,0.198697 0.864757,-0.394602 0.929132,0.929131 -0.400195,0.859164 0.198697,0.198697 1.278948,-2.846152 -0.223884,-0.223884 -2.846152,1.278949 z m 1.298535,-0.30225 1.455262,-0.666059 -0.657666,1.463654 -0.797596,-0.797595 z"
       style="font-size:4.05277061px;font-style:normal;font-variant:normal;font-weight:normal;font-stretch:normal;text-align:start;line-height:125%;writing-mode:lr-tb;text-anchor:start;fill:#000000;fill-opacity:1;stroke:none;font-family:Dotum;-inkscape-font-specification:Dotum"
       inkscape:export-filename="/home/rpelisse/Repositories/isep/middleware.hg/img/svg.png"
       inkscape:export-xdpi="61.445145"
       inkscape:export-ydpi="61.445145" />
    <path
       inkscape:connector-curvature="0"
       id="text3267"
       d="m 59.268695,18.150797 0.261927,0.261927 0.261927,-0.261928 -0.261926,-0.261926 -0.261928,0.261927 z m 1.01029,1.016045 0.141038,0.141039 1.79607,-1.796071 -0.696554,2.895587 0.210117,0.210117 2.12132,-2.121321 -0.192849,-0.192849 -1.784557,1.784557 0.690799,-2.878315 -0.215874,-0.215874 -2.12132,2.121321 0.05181,0.05181 z m 2.00331,2.003311 1.424764,1.424764 0.175577,-0.175578 -1.231914,-1.231914 0.826077,-0.826077 1.09376,1.09376 0.175577,-0.175578 -1.093759,-1.09376 0.768511,-0.768511 1.197379,1.19738 0.175577,-0.175578 -1.390228,-1.390228 -2.121321,2.12132 z m 2.308407,2.308407 0.192849,0.192849 1.945743,-1.945743 0.662015,0.662015 0.175577,-0.175578 -1.513993,-1.513993 -0.175578,0.175577 0.65913,0.65913 -1.945743,1.945743 z"
       style="font-size:4.16824961px;font-style:normal;font-variant:normal;font-weight:normal;font-stretch:normal;text-align:start;line-height:125%;writing-mode:lr-tb;text-anchor:start;fill:#000000;fill-opacity:1;stroke:none;font-family:Dotum;-inkscape-font-specification:Dotum"
       inkscape:export-filename="/home/rpelisse/Repositories/isep/middleware.hg/img/svg.png"
       inkscape:export-xdpi="61.445145"
       inkscape:export-ydpi="61.445145" />
    <path
       inkscape:connector-curvature="0"
       id="text3271"
       d="m 59.468695,58.065032 0.604447,0.604447 c 0.16886,0.16886 0.297425,0.291669 0.385695,0.368425 0.113213,0.09786 0.2034,0.163103 0.270562,0.195726 0.145833,0.0614 0.295505,0.07483 0.449017,0.0403 0.151589,-0.03262 0.288789,-0.110337 0.411599,-0.233144 0.143914,-0.143917 0.226426,-0.301264 0.247536,-0.472044 0.02494,-0.17078 -0.01247,-0.332926 -0.112254,-0.486436 0.138157,0.05757 0.275356,0.07388 0.411599,0.04893 0.136237,-0.02495 0.256167,-0.08923 0.35979,-0.192847 0.09786,-0.09786 0.164061,-0.210116 0.198604,-0.336763 0.03646,-0.128564 0.03741,-0.254251 0.0029,-0.377059 -0.02303,-0.09211 -0.06812,-0.185171 -0.135281,-0.279197 -0.05949,-0.07867 -0.143919,-0.172698 -0.253292,-0.282076 l -0.719601,-0.719582 -2.121321,2.12132 z m 2.630783,-1.260703 c 0.19956,0.199564 0.316612,0.366507 0.351155,0.500828 0.03837,0.149672 -0.01631,0.298385 -0.164064,0.446139 -0.145838,0.145834 -0.29647,0.198604 -0.451896,0.158307 -0.134324,-0.03454 -0.305104,-0.155429 -0.512341,-0.362668 l -0.474923,-0.474923 0.759876,-0.759876 0.492193,0.492193 z m -2.262358,1.277973 0.83759,-0.83759 0.607326,0.607325 c 0.180372,0.180374 0.281113,0.352114 0.302223,0.515219 0.01919,0.165022 -0.04318,0.319492 -0.187091,0.463409 -0.153512,0.153509 -0.307022,0.214913 -0.46053,0.184213 -0.138162,-0.02687 -0.307023,-0.14008 -0.506584,-0.339642 L 59.83712,58.082302 z m 1.634884,1.98604 0.192848,0.192847 0.918184,-0.918183 0.451895,0.451896 c 0.262885,0.262886 0.511379,0.40968 0.745485,0.440383 0.230262,0.0307 0.446136,-0.05469 0.647621,-0.256171 0.19956,-0.199563 0.290707,-0.407762 0.27344,-0.624595 -0.01535,-0.214914 -0.139122,-0.438463 -0.371302,-0.670648 l -0.73685,-0.73685 -2.121321,2.121321 z m 1.286609,-0.900913 0.851982,-0.851983 0.538246,0.538246 c 0.170777,0.170781 0.263842,0.331007 0.279196,0.480679 0.01535,0.149672 -0.04893,0.296467 -0.192847,0.440382 -0.155432,0.15543 -0.316618,0.218752 -0.483557,0.18997 -0.157351,-0.02687 -0.336766,-0.141038 -0.538246,-0.34252 l -0.454774,-0.454774 z m 0.607325,2.794846 1.42477,1.424771 0.175578,-0.175578 -1.231923,-1.231923 0.826077,-0.826077 1.093762,1.093761 0.175577,-0.175577 -1.093761,-1.093761 0.768511,-0.768511 1.19738,1.19738 0.175578,-0.175577 -1.390229,-1.390229 -2.12132,2.121321 z m 1.853638,1.853638 1.280853,1.280853 0.175577,-0.175577 -1.088004,-1.088004 1.945743,-1.945743 -0.192849,-0.19285 -2.12132,2.121321 z"
       style="font-size:4.16824961px;font-style:normal;font-variant:normal;font-weight:normal;font-stretch:normal;text-align:start;line-height:125%;writing-mode:lr-tb;text-anchor:start;fill:#000000;fill-opacity:1;stroke:none;font-family:Dotum;-inkscape-font-specification:Dotum"
       inkscape:export-filename="/home/rpelisse/Repositories/isep/middleware.hg/img/svg.png"
       inkscape:export-xdpi="61.445145"
       inkscape:export-ydpi="61.445145" />
    <path
       inkscape:connector-curvature="0"
       id="path3276"
       d="m 29.468695,18.065032 0.604447,0.604447 c 0.16886,0.16886 0.297425,0.291669 0.385695,0.368425 0.113213,0.09786 0.2034,0.163103 0.270562,0.195726 0.145833,0.0614 0.295505,0.07483 0.449017,0.0403 0.151589,-0.03262 0.288789,-0.110337 0.411599,-0.233144 0.143914,-0.143917 0.226426,-0.301264 0.247536,-0.472044 0.02494,-0.17078 -0.01248,-0.332926 -0.112254,-0.486436 0.138157,0.05757 0.275356,0.07388 0.411599,0.04893 0.136237,-0.02494 0.256167,-0.08923 0.35979,-0.192847 0.09786,-0.09786 0.164061,-0.210116 0.198604,-0.336763 0.03645,-0.128564 0.03741,-0.254251 0.0029,-0.377059 -0.02303,-0.09211 -0.06812,-0.185171 -0.135281,-0.279197 -0.05949,-0.07867 -0.143919,-0.172698 -0.253292,-0.282076 l -0.719601,-0.719582 -2.121321,2.12132 z m 2.630783,-1.260703 c 0.19956,0.199564 0.316612,0.366507 0.351155,0.500828 0.03837,0.149672 -0.01631,0.298385 -0.164064,0.446139 -0.145838,0.145834 -0.29647,0.198604 -0.451896,0.158307 -0.134324,-0.03454 -0.305104,-0.155429 -0.512341,-0.362668 l -0.474923,-0.474923 0.759876,-0.759876 0.492193,0.492193 z m -2.262358,1.277973 0.83759,-0.83759 0.607326,0.607325 c 0.180372,0.180374 0.281113,0.352114 0.302223,0.515219 0.01919,0.165022 -0.04318,0.319492 -0.187091,0.463409 -0.153512,0.153509 -0.307022,0.214913 -0.46053,0.184213 -0.138162,-0.02687 -0.307023,-0.14008 -0.506584,-0.339642 L 29.83712,18.082302 z m 1.634884,1.98604 0.192848,0.192847 0.918184,-0.918183 0.451895,0.451896 c 0.262885,0.262886 0.511379,0.40968 0.745485,0.440383 0.230262,0.0307 0.446136,-0.05469 0.647621,-0.256171 0.19956,-0.199563 0.290707,-0.407762 0.27344,-0.624595 -0.01535,-0.214914 -0.139122,-0.438463 -0.371302,-0.670648 l -0.73685,-0.73685 -2.121321,2.121321 z m 1.286609,-0.900913 0.851982,-0.851983 0.538246,0.538246 c 0.170777,0.170781 0.263842,0.331007 0.279196,0.480679 0.01535,0.149672 -0.04893,0.296467 -0.192847,0.440382 -0.155432,0.15543 -0.316618,0.218752 -0.483557,0.18997 -0.157351,-0.02687 -0.336766,-0.141038 -0.538246,-0.34252 l -0.454774,-0.454774 z m 0.607325,2.794846 1.42477,1.424771 0.175578,-0.175578 -1.231923,-1.231923 0.826077,-0.826077 1.093762,1.093761 0.175577,-0.175577 -1.093761,-1.093761 0.768511,-0.768511 1.19738,1.19738 0.175578,-0.175577 -1.390229,-1.390229 -2.12132,2.121321 z m 1.853638,1.853638 1.280853,1.280853 0.175577,-0.175577 -1.088004,-1.088004 1.945743,-1.945743 -0.192849,-0.19285 -2.12132,2.121321 z"
       style="font-size:4.16824961px;font-style:normal;font-variant:normal;font-weight:normal;font-stretch:normal;text-align:start;line-height:125%;writing-mode:lr-tb;text-anchor:start;fill:#000000;fill-opacity:1;stroke:none;font-family:Dotum;-inkscape-font-specification:Dotum"
       inkscape:export-filename="/home/rpelisse/Repositories/isep/middleware.hg/img/svg.png"
       inkscape:export-xdpi="61.445145"
       inkscape:export-ydpi="61.445145" />
    <path
       inkscape:connector-curvature="0"
       id="path3283"
       d="m -0.10869272,57.017042 -0.148325,0.14833 c -0.179109,0.17911 -0.270526,0.35822 -0.274257,0.53733 -0.0019,0.18097 0.08489,0.35915 0.260264,0.53452 0.180977,0.18098 0.369415,0.2724 0.565314,0.27427 0.195899,0.0019 0.383402,-0.08676 0.562512,-0.26587 l 1.56160502,-1.56161 -0.190304,-0.1903 -1.51682802,1.51683 c -0.154855,0.15485 -0.292919,0.23694 -0.414187,0.24627 -0.125006,0.01306 -0.255603,-0.0485 -0.391799,-0.1847 -0.117543,-0.11754 -0.172581,-0.23788 -0.165115,-0.36101 0.0093,-0.12128 0.07836,-0.24628 0.20709,-0.37502 l 0.131533,-0.13153 -0.187503,-0.18751 z m 0.758415,2.02338 0.198697,0.19869 0.86476402,-0.39459 0.929124,0.92912 -0.400195,0.85917 0.198697,0.19869 1.278949,-2.84615 -0.223884,-0.22388 -2.84615202,1.27895 z m 1.29853502,-0.30225 1.455261,-0.66606 -0.657666,1.46365 -0.797595,-0.79759 z m 1.348915,2.9497 0.204297,0.20429 2.776191,-1.34891 -0.190303,-0.1903 -2.445959,1.19779 1.200588,-2.44316 -0.198697,-0.1987 -1.346117,2.77899 z m 0.990699,0.9907 0.198697,0.19869 0.864757,-0.3946 0.929132,0.92913 -0.400195,0.85917 0.198697,0.19869 1.278948,-2.84615 -0.223884,-0.22388 -2.846152,1.27895 z m 1.298535,-0.30225 1.455262,-0.66606 -0.657666,1.46365 -0.797596,-0.79759 z"
       style="font-size:4.05277061px;font-style:normal;font-variant:normal;font-weight:normal;font-stretch:normal;text-align:start;line-height:125%;writing-mode:lr-tb;text-anchor:start;fill:#000000;fill-opacity:1;stroke:none;font-family:Dotum;-inkscape-font-specification:Dotum"
       inkscape:export-filename="/home/rpelisse/Repositories/isep/middleware.hg/img/svg.png"
       inkscape:export-xdpi="61.445145"
       inkscape:export-ydpi="61.445145" />
    <path
       inkscape:connector-curvature="0"
       id="path3286"
       d="m 44.268695,58.150797 0.261926,0.261927 0.261927,-0.261928 -0.261926,-0.261926 -0.261927,0.261927 z m 1.010289,1.016045 0.141038,0.141039 1.796071,-1.796071 -0.696554,2.895587 0.210116,0.210117 2.121321,-2.121321 -0.192849,-0.192849 -1.784558,1.784557 0.6908,-2.878315 -0.215874,-0.215874 -2.121321,2.121321 0.05181,0.05181 z m 2.003311,2.003311 1.424763,1.424764 0.175578,-0.175578 -1.231915,-1.231914 0.826078,-0.826077 1.09376,1.09376 0.175577,-0.175578 -1.09376,-1.09376 0.768511,-0.768511 1.197379,1.19738 0.175578,-0.175578 -1.390229,-1.390228 -2.12132,2.12132 z m 2.308407,2.308407 0.192849,0.192849 1.945743,-1.945743 0.662014,0.662015 0.175578,-0.175578 -1.513994,-1.513993 -0.175577,0.175577 0.659129,0.65913 -1.945742,1.945743 z"
       style="font-size:4.16824961px;font-style:normal;font-variant:normal;font-weight:normal;font-stretch:normal;text-align:start;line-height:125%;writing-mode:lr-tb;text-anchor:start;fill:#000000;fill-opacity:1;stroke:none;font-family:Dotum;-inkscape-font-specification:Dotum"
       inkscape:export-filename="/home/rpelisse/Repositories/isep/middleware.hg/img/svg.png"
       inkscape:export-xdpi="61.445145"
       inkscape:export-ydpi="61.445145" />
    <path
       inkscape:connector-curvature="0"
       id="path3290"
       d="m 29.468695,58.065032 0.604447,0.604447 c 0.16886,0.16886 0.297425,0.291669 0.385695,0.368425 0.113213,0.09786 0.2034,0.163103 0.270562,0.195726 0.145833,0.0614 0.295505,0.07483 0.449017,0.0403 0.151589,-0.03262 0.288789,-0.110337 0.411599,-0.233144 0.143914,-0.143917 0.226426,-0.301264 0.247536,-0.472044 0.02494,-0.17078 -0.01248,-0.332926 -0.112254,-0.486436 0.138157,0.05757 0.275356,0.07388 0.411599,0.04893 0.136237,-0.02495 0.256167,-0.08923 0.35979,-0.192847 0.09786,-0.09786 0.164061,-0.210116 0.198604,-0.336763 0.03645,-0.128564 0.03741,-0.254251 0.0029,-0.377059 -0.02303,-0.09211 -0.06812,-0.185171 -0.135281,-0.279197 -0.05949,-0.07867 -0.143919,-0.172698 -0.253292,-0.282076 l -0.719601,-0.719582 -2.121321,2.12132 z m 2.630783,-1.260703 c 0.19956,0.199564 0.316612,0.366507 0.351155,0.500828 0.03837,0.149672 -0.01631,0.298385 -0.164064,0.446139 -0.145838,0.145834 -0.29647,0.198604 -0.451896,0.158307 -0.134324,-0.03454 -0.305104,-0.155429 -0.512341,-0.362668 l -0.474923,-0.474923 0.759876,-0.759876 0.492193,0.492193 z m -2.262358,1.277973 0.83759,-0.83759 0.607326,0.607325 c 0.180372,0.180374 0.281113,0.352114 0.302223,0.515219 0.01919,0.165022 -0.04318,0.319492 -0.187091,0.463409 -0.153512,0.153509 -0.307022,0.214913 -0.46053,0.184213 -0.138162,-0.02687 -0.307023,-0.14008 -0.506584,-0.339642 L 29.83712,58.082302 z m 1.634884,1.98604 0.192848,0.192847 0.918184,-0.918183 0.451895,0.451896 c 0.262885,0.262886 0.511379,0.40968 0.745485,0.440383 0.230262,0.0307 0.446136,-0.05469 0.647621,-0.256171 0.19956,-0.199563 0.290707,-0.407762 0.27344,-0.624595 -0.01535,-0.214914 -0.139122,-0.438463 -0.371302,-0.670648 l -0.73685,-0.73685 -2.121321,2.121321 z m 1.286609,-0.900913 0.851982,-0.851983 0.538246,0.538246 c 0.170777,0.170781 0.263842,0.331007 0.279196,0.480679 0.01535,0.149672 -0.04893,0.296467 -0.192847,0.440382 -0.155432,0.15543 -0.316618,0.218752 -0.483557,0.18997 -0.157351,-0.02687 -0.336766,-0.141038 -0.538246,-0.34252 l -0.454774,-0.454774 z m 0.607325,2.794846 1.42477,1.424771 0.175578,-0.175578 -1.231923,-1.231923 0.826077,-0.826077 1.093762,1.093761 0.175577,-0.175577 -1.093761,-1.093761 0.768511,-0.768511 1.19738,1.19738 0.175578,-0.175577 -1.390229,-1.390229 -2.12132,2.121321 z m 1.853638,1.853638 1.280853,1.280853 0.175577,-0.175577 -1.088004,-1.088004 1.945743,-1.945743 -0.192849,-0.19285 -2.12132,2.121321 z"
       style="font-size:4.16824961px;font-style:normal;font-variant:normal;font-weight:normal;font-stretch:normal;text-align:start;line-height:125%;writing-mode:lr-tb;text-anchor:start;fill:#000000;fill-opacity:1;stroke:none;font-family:Dotum;-inkscape-font-specification:Dotum"
       inkscape:export-filename="/home/rpelisse/Repositories/isep/middleware.hg/img/svg.png"
       inkscape:export-xdpi="61.445145"
       inkscape:export-ydpi="61.445145" />
    <path
       inkscape:connector-curvature="0"
       id="path3292"
       d="m 14.891307,57.017042 -0.148325,0.14833 c -0.179109,0.17911 -0.270526,0.35822 -0.274257,0.53733 -0.0019,0.18097 0.08489,0.35915 0.260264,0.53452 0.180977,0.18098 0.369415,0.2724 0.565314,0.27427 0.195899,0.0019 0.383402,-0.08676 0.562512,-0.26587 l 1.561605,-1.56161 -0.190304,-0.1903 -1.516828,1.51683 c -0.154855,0.15485 -0.292919,0.23694 -0.414187,0.24627 -0.125006,0.01306 -0.255603,-0.0485 -0.391799,-0.1847 -0.117543,-0.11754 -0.172581,-0.23788 -0.165115,-0.36101 0.0093,-0.12128 0.07836,-0.24628 0.20709,-0.37502 l 0.131533,-0.13153 -0.187503,-0.18751 z m 0.758415,2.02338 0.198697,0.19869 0.864764,-0.39459 0.929124,0.92912 -0.400195,0.85917 0.198697,0.19869 1.278949,-2.84615 -0.223884,-0.22388 -2.846152,1.27895 z m 1.298535,-0.30225 1.455261,-0.66606 -0.657666,1.46365 -0.797595,-0.79759 z m 1.348915,2.9497 0.204297,0.20429 2.776191,-1.34891 -0.190303,-0.1903 -2.445959,1.19779 1.200588,-2.44316 -0.198697,-0.1987 -1.346117,2.77899 z m 0.990699,0.9907 0.198697,0.19869 0.864757,-0.3946 0.929132,0.92913 -0.400195,0.85917 0.198697,0.19869 1.278948,-2.84615 -0.223884,-0.22388 -2.846152,1.27895 z m 1.298535,-0.30225 1.455262,-0.66606 -0.657666,1.46365 -0.797596,-0.79759 z"
       style="font-size:4.05277061px;font-style:normal;font-variant:normal;font-weight:normal;font-stretch:normal;text-align:start;line-height:125%;writing-mode:lr-tb;text-anchor:start;fill:#000000;fill-opacity:1;stroke:none;font-family:Dotum;-inkscape-font-specification:Dotum"
       inkscape:export-filename="/home/rpelisse/Repositories/isep/middleware.hg/img/svg.png"
       inkscape:export-xdpi="61.445145"
       inkscape:export-ydpi="61.445145" />
    <path
       inkscape:connector-curvature="0"
       id="path3294"
       d="m 14.268695,18.150797 0.261927,0.261927 0.261927,-0.261928 -0.261926,-0.261926 -0.261928,0.261927 z m 1.01029,1.016045 0.141038,0.141039 1.79607,-1.796071 -0.696554,2.895587 0.210117,0.210117 2.12132,-2.121321 -0.192849,-0.192849 -1.784557,1.784557 0.690799,-2.878315 -0.215874,-0.215874 -2.12132,2.121321 0.05181,0.05181 z m 2.00331,2.003311 1.424764,1.424764 0.175577,-0.175578 -1.231914,-1.231914 0.826077,-0.826077 1.09376,1.09376 0.175577,-0.175578 -1.093759,-1.09376 0.768511,-0.768511 1.197379,1.19738 0.175577,-0.175578 -1.390228,-1.390228 -2.121321,2.12132 z m 2.308407,2.308407 0.192849,0.192849 1.945743,-1.945743 0.662015,0.662015 0.175577,-0.175578 -1.513993,-1.513993 -0.175578,0.175577 0.65913,0.65913 -1.945743,1.945743 z"
       style="font-size:4.16824961px;font-style:normal;font-variant:normal;font-weight:normal;font-stretch:normal;text-align:start;line-height:125%;writing-mode:lr-tb;text-anchor:start;fill:#000000;fill-opacity:1;stroke:none;font-family:Dotum;-inkscape-font-specification:Dotum"
       inkscape:export-filename="/home/rpelisse/Repositories/isep/middleware.hg/img/svg.png"
       inkscape:export-xdpi="61.445145"
       inkscape:export-ydpi="61.445145" />
    <path
       inkscape:connector-curvature="0"
       id="path3296"
       d="m -0.53130472,18.065032 0.604447,0.604447 c 0.16886,0.16886 0.297425,0.291669 0.385695,0.368425 0.113213,0.09786 0.2034,0.163103 0.270562,0.195726 0.145833,0.0614 0.29550502,0.07483 0.44901702,0.0403 0.151589,-0.03262 0.288789,-0.110337 0.411599,-0.233144 0.143914,-0.143917 0.226426,-0.301264 0.247536,-0.472044 0.02494,-0.17078 -0.01247,-0.332926 -0.112254,-0.486436 0.138157,0.05757 0.275356,0.07388 0.411599,0.04893 0.136237,-0.02494 0.256167,-0.08923 0.35979,-0.192847 0.09786,-0.09786 0.164061,-0.210116 0.198604,-0.336763 0.03646,-0.128564 0.03742,-0.254251 0.0029,-0.377059 -0.02303,-0.09211 -0.06812,-0.185171 -0.135281,-0.279197 -0.05949,-0.07867 -0.143919,-0.172698 -0.253292,-0.282076 l -0.719601,-0.719582 -2.12132102,2.12132 z M 2.0994783,16.804329 c 0.19956,0.199564 0.316612,0.366507 0.351155,0.500828 0.03837,0.149672 -0.01631,0.298385 -0.164064,0.446139 -0.145838,0.145834 -0.29647,0.198604 -0.451896,0.158307 -0.134324,-0.03454 -0.305104,-0.155429 -0.512341,-0.362668 l -0.47492302,-0.474923 0.75987602,-0.759876 0.492193,0.492193 z m -2.26235802,1.277973 0.83759,-0.83759 0.60732602,0.607325 c 0.180372,0.180374 0.281113,0.352114 0.302223,0.515219 0.01919,0.165022 -0.04318,0.319492 -0.187091,0.463409 -0.153512,0.153509 -0.307022,0.214913 -0.46053002,0.184213 -0.138162,-0.02687 -0.307023,-0.14008 -0.506584,-0.339642 l -0.592934,-0.592934 z m 1.63488402,1.98604 0.192848,0.192847 0.918184,-0.918183 0.451895,0.451896 c 0.262885,0.262886 0.511379,0.40968 0.745485,0.440383 0.230262,0.0307 0.446136,-0.05469 0.647621,-0.256171 0.19956,-0.199563 0.290707,-0.407762 0.27344,-0.624595 -0.01535,-0.214914 -0.139122,-0.438463 -0.371302,-0.670648 l -0.73685,-0.73685 -2.121321,2.121321 z m 1.286609,-0.900913 0.851982,-0.851983 0.538246,0.538246 c 0.170777,0.170781 0.263842,0.331007 0.279196,0.480679 0.01535,0.149672 -0.04893,0.296467 -0.192847,0.440382 -0.155432,0.15543 -0.316618,0.218752 -0.483557,0.18997 -0.157351,-0.02687 -0.336766,-0.141038 -0.538246,-0.34252 l -0.454774,-0.454774 z m 0.607325,2.794846 1.42477,1.424771 0.175578,-0.175578 -1.231923,-1.231923 0.826077,-0.826077 1.093762,1.093761 0.175577,-0.175577 -1.093761,-1.093761 0.768511,-0.768511 1.19738,1.19738 0.175578,-0.175577 -1.390229,-1.390229 -2.12132,2.121321 z m 1.853638,1.853638 1.280853,1.280853 0.175577,-0.175577 -1.088004,-1.088004 1.945743,-1.945743 -0.192849,-0.19285 -2.12132,2.121321 z"
       style="font-size:4.16824961px;font-style:normal;font-variant:normal;font-weight:normal;font-stretch:normal;text-align:start;line-height:125%;writing-mode:lr-tb;text-anchor:start;fill:#000000;fill-opacity:1;stroke:none;font-family:Dotum;-inkscape-font-specification:Dotum"
       inkscape:export-filename="/home/rpelisse/Repositories/isep/middleware.hg/img/svg.png"
       inkscape:export-xdpi="61.445145"
       inkscape:export-ydpi="61.445145" />
    <path
       inkscape:connector-curvature="0"
       id="text4588"
       d="m 29.874738,70.785137 c -0.01716,0.201631 -0.08902,0.359288 -0.215573,0.472973 -0.126557,0.11583 -0.294939,0.173745 -0.505148,0.173745 -0.253111,0 -0.452596,-0.09223 -0.598456,-0.276705 -0.14586,-0.18876 -0.21879,-0.451522 -0.21879,-0.788288 0,-0.334619 0.07186,-0.593092 0.215573,-0.775419 0.143714,-0.178033 0.343199,-0.26705 0.598455,-0.267052 0.197339,2e-6 0.358214,0.04934 0.482626,0.148005 0.124408,0.09867 0.197338,0.23488 0.21879,0.408623 l 0.215573,0 c -0.01502,-0.227369 -0.104035,-0.409693 -0.267053,-0.546976 -0.165167,-0.137278 -0.381812,-0.205918 -0.649936,-0.20592 -0.319606,2e-6 -0.571643,0.108325 -0.756113,0.324968 -0.18876,0.220937 -0.28314,0.5266 -0.28314,0.916988 0,0.392536 0.09331,0.700344 0.279923,0.923424 0.182324,0.22308 0.433289,0.33462 0.752895,0.33462 0.278849,0 0.500857,-0.07507 0.666023,-0.225225 0.165164,-0.15015 0.257399,-0.35607 0.276706,-0.617761 l -0.212355,0 z m 1.940154,-0.936293 -0.196268,0 0,1.013513 c -1e-6,0.173746 -0.04719,0.312099 -0.14157,0.415058 -0.09224,0.10296 -0.213429,0.15444 -0.363578,0.15444 -0.141571,0 -0.242386,-0.03968 -0.302445,-0.119047 -0.05792,-0.07507 -0.08687,-0.195195 -0.08687,-0.360361 l 0,-1.103603 -0.196267,0 0,1.151866 c -1e-6,0.197341 0.04612,0.348563 0.138352,0.453668 0.09438,0.10296 0.23166,0.15444 0.411841,0.15444 0.115829,0 0.218789,-0.02681 0.30888,-0.08044 0.09223,-0.05362 0.171599,-0.135135 0.238095,-0.24453 l 0,0.276705 0.189833,0 0,-1.711712 z m 0.469756,1.177606 c 0.0043,0.175891 0.06542,0.316388 0.183397,0.421493 0.12012,0.10725 0.279922,0.160875 0.479408,0.160875 0.197339,0 0.356069,-0.04719 0.476191,-0.14157 0.117973,-0.09223 0.176961,-0.209138 0.176962,-0.350708 -10e-7,-0.137279 -0.04183,-0.242385 -0.125482,-0.315315 -0.07722,-0.06649 -0.209139,-0.122265 -0.395753,-0.167311 l -0.07722,-0.01931 c -0.182326,-0.0429 -0.300301,-0.07936 -0.353926,-0.109395 -0.08151,-0.04933 -0.122265,-0.126554 -0.122265,-0.23166 0,-0.08794 0.03218,-0.157656 0.09652,-0.209137 0.07079,-0.05577 0.165165,-0.08366 0.283141,-0.08366 0.132989,2e-6 0.239166,0.03218 0.318532,0.09652 0.07722,0.0665 0.120119,0.15766 0.128701,0.273488 l 0.202702,0 c -0.01287,-0.171599 -0.07615,-0.304588 -0.189832,-0.39897 -0.113687,-0.09652 -0.265982,-0.144786 -0.456886,-0.144788 -0.175891,2e-6 -0.318533,0.04612 -0.427928,0.138353 -0.10725,0.09224 -0.160875,0.211284 -0.160875,0.357143 0,0.137281 0.05148,0.242386 0.15444,0.315315 0.08366,0.06006 0.238095,0.117976 0.463321,0.173745 l 0.0097,0 c 0.173744,0.0429 0.285284,0.07937 0.334621,0.109395 0.07722,0.04505 0.115828,0.115831 0.11583,0.212356 -2e-6,0.09438 -0.03968,0.170527 -0.119048,0.228442 -0.08366,0.06006 -0.196269,0.09009 -0.337838,0.09009 -0.132991,0 -0.241313,-0.03861 -0.324968,-0.11583 -0.0858,-0.07508 -0.1287,-0.1716 -0.1287,-0.289575 l -0.202702,0 z m 2.068854,-1.669884 -0.196268,0 0,0.492278 -0.23166,0 0,0.160875 0.23166,0 0,1.248391 c 0,0.122265 0.01716,0.208066 0.05148,0.2574 0.04075,0.05791 0.114757,0.08687 0.222008,0.08687 0.03646,0 0.074,-0.0032 0.112613,-0.0096 0.03861,-0.0064 0.08151,-0.01609 0.1287,-0.02896 l 0,-0.15444 -0.03217,0.0064 c -0.03861,0.0086 -0.06757,0.01394 -0.08687,0.01609 -0.02789,0.0064 -0.05148,0.0097 -0.07078,0.0097 -0.05363,0 -0.08902,-0.01609 -0.106178,-0.04826 -0.01501,-0.02574 -0.02252,-0.07079 -0.02252,-0.135135 l 0,-1.248391 0.318533,0 0,-0.160875 -0.318533,0 0,-0.492278 z m 1.457529,0.45045 c -0.246676,2e-6 -0.442944,0.09331 -0.588803,0.279923 -0.128701,0.169456 -0.193051,0.376449 -0.19305,0.620978 -1e-6,0.242386 0.06435,0.447234 0.19305,0.614543 0.145859,0.188761 0.342127,0.283141 0.588803,0.283141 0.246674,0 0.442941,-0.09438 0.588803,-0.283141 0.130843,-0.167309 0.196266,-0.372157 0.196268,-0.614543 -2e-6,-0.244529 -0.06542,-0.451522 -0.196268,-0.620978 -0.145862,-0.186613 -0.342129,-0.279921 -0.588803,-0.279923 l 0,0 z m 0,0.173745 c 0.182324,2e-6 0.327111,0.07508 0.434363,0.225226 0.09867,0.137281 0.148003,0.303518 0.148005,0.498713 -2e-6,0.195195 -0.04934,0.36036 -0.148005,0.495495 -0.107252,0.152295 -0.252039,0.228443 -0.434363,0.228443 -0.184471,0 -0.329259,-0.07615 -0.434363,-0.228443 -0.09653,-0.135135 -0.144788,-0.3003 -0.144788,-0.495495 0,-0.197339 0.04826,-0.363577 0.144788,-0.498713 0.107249,-0.150149 0.252037,-0.225224 0.434363,-0.225226 l 0,0 z m 1.248391,1.579795 0.196268,0 0,-1.058559 c -1e-6,-0.156584 0.04612,-0.282066 0.138352,-0.376448 0.09438,-0.09652 0.220935,-0.144786 0.379666,-0.144788 0.100814,2e-6 0.179106,0.03539 0.234878,0.106178 0.05577,0.07079 0.08365,0.176964 0.08366,0.318533 l 0,1.155084 0.196267,0 0,-1.071429 c -1e-6,-0.152294 0.04504,-0.274559 0.135135,-0.366796 0.09438,-0.09438 0.220934,-0.141568 0.379666,-0.14157 0.111538,2e-6 0.193048,0.03218 0.24453,0.09652 0.05148,0.06435 0.07722,0.167312 0.07722,0.308881 l 0,1.174388 0.196268,0 0,-1.193693 c -3e-6,-0.186614 -0.04397,-0.327112 -0.131918,-0.421493 -0.08795,-0.09223 -0.214502,-0.138351 -0.379665,-0.138353 -0.128702,2e-6 -0.240242,0.02789 -0.334621,0.08366 -0.09438,0.05577 -0.170529,0.139427 -0.228442,0.250965 -0.03003,-0.107248 -0.08473,-0.189831 -0.164093,-0.247747 -0.07937,-0.05791 -0.173746,-0.08687 -0.28314,-0.08687 -0.124411,10e-7 -0.233806,0.02789 -0.328185,0.08366 -0.09438,0.05363 -0.170529,0.134064 -0.228443,0.241312 l 0,-0.28314 -0.183398,0 0,1.711712 z m 3.159588,-0.978121 c -0.0021,-0.175889 0.05148,-0.323895 0.160876,-0.444016 0.09652,-0.105104 0.219861,-0.157656 0.370012,-0.157658 0.148004,2e-6 0.268124,0.05255 0.360361,0.157658 0.102958,0.120121 0.154438,0.268127 0.15444,0.444016 l -1.045689,0 z m 0,0.157657 1.251609,0 0,-0.06435 c -2e-6,-0.274559 -0.06435,-0.489059 -0.19305,-0.643501 -0.128702,-0.150148 -0.302447,-0.225223 -0.521236,-0.225225 -0.231661,2e-6 -0.412913,0.07829 -0.543758,0.234878 -0.13299,0.160876 -0.199485,0.385029 -0.199485,0.672458 0,0.280996 0.06542,0.500858 0.196268,0.659588 0.130844,0.156585 0.309952,0.234878 0.537323,0.234878 0.188759,0 0.346416,-0.05362 0.472973,-0.160875 0.128698,-0.105105 0.203773,-0.243457 0.225225,-0.415058 l -0.196268,0 c -0.01931,0.122266 -0.074,0.219863 -0.164092,0.292793 -0.08795,0.07079 -0.195197,0.106177 -0.321751,0.106177 -0.163021,0 -0.293866,-0.06113 -0.392535,-0.183397 -0.100816,-0.12441 -0.151223,-0.293865 -0.151223,-0.508366 l 0,0 z m 1.705277,0.820464 0.196268,0 0,-0.949164 c 0,-0.197339 0.0429,-0.347489 0.1287,-0.45045 0.08366,-0.100814 0.203775,-0.151222 0.360361,-0.151223 l 0.02896,0 0,-0.202703 -0.02252,0 c -0.113686,2e-6 -0.212356,0.02681 -0.296011,0.08044 -0.08794,0.05792 -0.155513,0.144789 -0.202702,0.260618 l 0,-0.299228 -0.193051,0 0,1.711712 z"
       style="font-size:3.29472327px;font-style:normal;font-variant:normal;font-weight:normal;font-stretch:normal;text-align:start;line-height:125%;writing-mode:lr-tb;text-anchor:start;fill:#000000;fill-opacity:1;stroke:none;font-family:Dotum;-inkscape-font-specification:Dotum"
       inkscape:export-filename="/home/rpelisse/Repositories/isep/middleware.hg/img/svg.png"
       inkscape:export-xdpi="61.445145"
       inkscape:export-ydpi="61.445145" />
    <path
       inkscape:connector-curvature="0"
       id="text4592"
       d="m 25.518768,12.60459 0.222739,0 0,-1.060505 0.521942,0 c 0.303633,10e-7 0.531913,-0.05873 0.68484,-0.176197 0.150708,-0.115247 0.226062,-0.289227 0.226064,-0.521942 -2e-6,-0.230494 -0.0676,-0.403366 -0.202792,-0.518617 -0.132981,-0.115246 -0.333557,-0.17287 -0.601729,-0.172872 l -0.851064,0 0,2.450133 z m 0.222739,-1.263298 0,-0.984043 0.621676,0 c 0.19725,3e-6 0.343527,0.03879 0.43883,0.116357 0.0953,0.07757 0.14295,0.19947 0.142952,0.365691 -2e-6,0.179523 -0.05652,0.309177 -0.169548,0.388963 -0.106385,0.07536 -0.275932,0.113033 -0.508644,0.113032 l -0.525266,0 z m 1.921543,1.263298 0.202792,0 0,-0.980718 c 0,-0.2039 0.04433,-0.359041 0.132979,-0.465426 0.08644,-0.104165 0.210549,-0.156248 0.372341,-0.15625 l 0.02992,0 0,-0.209441 -0.02327,0 c -0.117465,2e-6 -0.219415,0.02771 -0.305851,0.08311 -0.09087,0.05984 -0.160683,0.149602 -0.209441,0.269282 l 0,-0.309176 -0.199468,0 0,1.768617 z m 1.841755,-1.811835 c -0.254877,2e-6 -0.457669,0.09641 -0.608378,0.289228 -0.132979,0.17509 -0.199468,0.388964 -0.199468,0.641623 0,0.250444 0.06649,0.462101 0.199468,0.634973 0.150709,0.195036 0.353501,0.292553 0.608378,0.292553 0.254875,0 0.457667,-0.09752 0.608378,-0.292553 0.135193,-0.172872 0.202791,-0.384529 0.202792,-0.634973 -1e-6,-0.252659 -0.0676,-0.466533 -0.202792,-0.641623 -0.150711,-0.192817 -0.353503,-0.289226 -0.608378,-0.289228 l 0,0 z m 0,0.179521 c 0.188385,2e-6 0.337986,0.07757 0.448803,0.232713 0.101949,0.141845 0.152924,0.313609 0.152926,0.515292 -2e-6,0.201686 -0.05098,0.372341 -0.152926,0.511968 -0.110817,0.157359 -0.260418,0.236038 -0.448803,0.236038 -0.190604,0 -0.340204,-0.07868 -0.448803,-0.236038 -0.09973,-0.139627 -0.149602,-0.310282 -0.149601,-0.511968 -10e-7,-0.203899 0.04987,-0.375663 0.149601,-0.515292 0.110815,-0.15514 0.260416,-0.232711 0.448803,-0.232713 l 0,0 z m 2.792552,-0.817819 -0.202792,0 0,0.96742 c -0.06871,-0.09973 -0.155143,-0.181736 -0.259309,-0.24601 -0.101951,-0.05541 -0.218307,-0.08311 -0.349069,-0.08311 -0.241579,10e-7 -0.433289,0.09641 -0.575132,0.289228 -0.12633,0.17509 -0.189495,0.388964 -0.189494,0.641623 -1e-6,0.250443 0.06316,0.463209 0.189494,0.638298 0.141843,0.195035 0.333553,0.292553 0.575132,0.292553 0.128545,0 0.248226,-0.03324 0.359043,-0.09973 0.106381,-0.06206 0.189493,-0.146277 0.249335,-0.25266 l 0,0.302527 0.202792,0 0,-2.450133 z m -0.777925,0.817819 c 0.186169,2e-6 0.334662,0.07757 0.445479,0.232713 0.09973,0.139629 0.149599,0.311393 0.149601,0.515292 -2e-6,0.201686 -0.04987,0.373449 -0.149601,0.515293 -0.110817,0.157358 -0.25931,0.236037 -0.445479,0.236037 -0.186171,0 -0.333556,-0.07868 -0.442154,-0.236037 -0.09752,-0.141844 -0.146276,-0.313607 -0.146276,-0.515293 0,-0.203899 0.04876,-0.375663 0.146276,-0.515292 0.108598,-0.15514 0.255983,-0.232711 0.442154,-0.232713 l 0,0 z m 2.659575,-0.136303 -0.202793,0 0,1.047207 c -10e-7,0.179522 -0.04876,0.322474 -0.146276,0.428857 -0.0953,0.106383 -0.220525,0.159574 -0.375665,0.159574 -0.146278,0 -0.250444,-0.041 -0.3125,-0.123005 -0.05984,-0.07757 -0.08976,-0.201684 -0.08976,-0.372341 l 0,-1.140292 -0.202793,0 0,1.190159 c 0,0.203902 0.04765,0.360151 0.142953,0.46875 0.09752,0.106384 0.239361,0.159575 0.425531,0.159575 0.11968,0 0.226063,-0.0277 0.319149,-0.08311 0.0953,-0.05541 0.177304,-0.139628 0.246011,-0.25266 l 0,0.285905 0.196144,0 0,-1.768617 z m 1.791888,1.156915 c -0.02438,0.148493 -0.08201,0.264849 -0.172872,0.349069 -0.09309,0.08422 -0.207227,0.12633 -0.34242,0.12633 -0.177306,0 -0.318042,-0.06538 -0.422208,-0.196144 -0.106383,-0.135195 -0.159575,-0.320256 -0.159574,-0.555186 -10e-7,-0.234928 0.05319,-0.418882 0.159574,-0.551862 0.104166,-0.128544 0.243794,-0.192817 0.418883,-0.192819 0.132978,2e-6 0.244901,0.03768 0.335771,0.113032 0.09308,0.07757 0.148492,0.181739 0.166224,0.3125 l 0.196143,0 c -0.01108,-0.181736 -0.0809,-0.328013 -0.209441,-0.43883 -0.128548,-0.110814 -0.291446,-0.166221 -0.488697,-0.166223 -0.243795,2e-6 -0.435506,0.082 -0.575133,0.24601 -0.141844,0.168442 -0.212766,0.400046 -0.212766,0.694814 0,0.283689 0.06981,0.507536 0.209442,0.671543 0.139627,0.164007 0.328013,0.24601 0.565159,0.24601 0.208332,0 0.37788,-0.05984 0.508644,-0.179521 0.128544,-0.117464 0.203899,-0.277038 0.226064,-0.478723 l -0.202793,0 z m 0.807846,-0.398936 c -0.0022,-0.181737 0.05319,-0.334662 0.166224,-0.458777 0.09973,-0.108598 0.227171,-0.162897 0.382313,-0.162899 0.152925,2e-6 0.277038,0.0543 0.372341,0.162899 0.106381,0.124115 0.159573,0.27704 0.159574,0.458777 l -1.080452,0 z m 0,0.162899 1.293218,0 0,-0.06649 c -10e-7,-0.283686 -0.06649,-0.505317 -0.199468,-0.664893 -0.13298,-0.15514 -0.312501,-0.232711 -0.538564,-0.232713 -0.239362,2e-6 -0.42664,0.0809 -0.561835,0.242686 -0.137411,0.166225 -0.206117,0.397829 -0.206117,0.694814 0,0.290338 0.0676,0.517509 0.202793,0.681516 0.135194,0.161791 0.320256,0.242686 0.555186,0.242686 0.195034,0 0.357933,-0.05541 0.488697,-0.166223 0.132977,-0.108599 0.210548,-0.251551 0.232713,-0.428857 l -0.202793,0 c -0.01995,0.126331 -0.07646,0.227173 -0.169548,0.302527 -0.09087,0.07314 -0.201685,0.109708 -0.332447,0.109707 -0.16844,1e-6 -0.303635,-0.06316 -0.405585,-0.189494 -0.104167,-0.128546 -0.15625,-0.303634 -0.15625,-0.525266 l 0,0 z m 1.761968,0.847739 0.202792,0 0,-0.980718 c 0,-0.2039 0.04433,-0.359041 0.132979,-0.465426 0.08644,-0.104165 0.210549,-0.156248 0.37234,-0.15625 l 0.02992,0 0,-0.209441 -0.02327,0 c -0.117465,2e-6 -0.219415,0.02771 -0.305851,0.08311 -0.09087,0.05984 -0.160683,0.149602 -0.209441,0.269282 l 0,-0.309176 -0.199468,0 0,1.768617 z"
       style="font-size:3.40425539px;font-style:normal;font-variant:normal;font-weight:normal;font-stretch:normal;text-align:start;line-height:125%;writing-mode:lr-tb;text-anchor:start;fill:#000000;fill-opacity:1;stroke:none;font-family:Dotum;-inkscape-font-specification:Dotum"
       inkscape:export-filename="/home/rpelisse/Repositories/isep/middleware.hg/img/svg.png"
       inkscape:export-xdpi="61.445145"
       inkscape:export-ydpi="61.445145" />
    <path
       inkscape:connector-curvature="0"
       id="text4609"
       d="m 29.366415,40.499082 1.933594,0 0,-0.238281 -1.671875,0 0,-1.121094 1.484375,0 0,-0.238281 -1.484375,0 0,-1.042969 1.625,0 0,-0.238281 -1.886719,0 0,2.878906 z m 2.394531,-0.875 0,0.01953 c 0,0.299479 0.09245,0.529948 0.277344,0.691406 0.184895,0.164063 0.45052,0.246094 0.796875,0.246094 0.304686,0 0.545571,-0.07552 0.722656,-0.226563 0.177081,-0.151041 0.265623,-0.354166 0.265625,-0.609375 -2e-6,-0.23177 -0.07292,-0.412759 -0.21875,-0.542968 -0.138023,-0.122395 -0.365887,-0.222655 -0.683593,-0.300782 l -0.335938,-0.08203 c -0.171876,-0.04427 -0.295574,-0.104165 -0.371094,-0.179687 -0.07552,-0.07812 -0.113282,-0.183592 -0.113281,-0.316406 -1e-6,-0.171873 0.05599,-0.304685 0.167969,-0.398438 0.114582,-0.09375 0.278645,-0.140622 0.492187,-0.140625 0.221353,3e-6 0.393228,0.05469 0.515625,0.164063 0.124998,0.109377 0.1888,0.266929 0.191406,0.472656 l 0.273438,0 c -0.0052,-0.27604 -0.09245,-0.490883 -0.261719,-0.644531 -0.169272,-0.153643 -0.404949,-0.230466 -0.707031,-0.230469 -0.291668,3e-6 -0.523438,0.07162 -0.695312,0.214844 -0.166668,0.140627 -0.250001,0.326825 -0.25,0.558593 -10e-7,0.221357 0.0638,0.391929 0.191406,0.511719 0.114582,0.104168 0.312499,0.19271 0.59375,0.265625 l 0.269531,0.06641 c 0.249998,0.0625 0.420571,0.132814 0.511719,0.210938 0.106769,0.08854 0.160154,0.222657 0.160156,0.402343 -2e-6,0.171876 -0.0638,0.308595 -0.191406,0.410157 -0.127606,0.104166 -0.303387,0.15625 -0.527344,0.15625 -0.255209,0 -0.453126,-0.0638 -0.59375,-0.191407 -0.138021,-0.124999 -0.207032,-0.30078 -0.207031,-0.527343 l -0.273438,0 z m 2.675781,0.875 0.820313,0 c 0.229165,0 0.399738,-0.0039 0.511719,-0.01172 0.143227,-0.01042 0.248696,-0.02734 0.316406,-0.05078 0.140623,-0.05729 0.2513,-0.14974 0.332031,-0.277344 0.08073,-0.124999 0.121092,-0.270833 0.121094,-0.4375 -2e-6,-0.195311 -0.05078,-0.358072 -0.152344,-0.488281 -0.09896,-0.132811 -0.234377,-0.217447 -0.40625,-0.253906 0.132811,-0.05469 0.236977,-0.136718 0.3125,-0.246094 0.07552,-0.109373 0.113279,-0.234373 0.113281,-0.375 -2e-6,-0.132811 -0.03125,-0.253904 -0.09375,-0.363281 -0.0625,-0.111977 -0.147137,-0.197915 -0.253906,-0.257813 -0.07813,-0.04687 -0.171877,-0.07942 -0.28125,-0.09766 -0.09375,-0.01302 -0.214845,-0.01953 -0.363281,-0.01953 l -0.976563,0 0,2.878906 z m 0.929688,-2.640625 c 0.270832,2e-6 0.46354,0.03386 0.578125,0.101562 0.127602,0.07552 0.191404,0.213544 0.191406,0.414063 -2e-6,0.197918 -0.06641,0.335939 -0.199219,0.414062 -0.114585,0.06771 -0.312501,0.101564 -0.59375,0.101563 l -0.644531,0 0,-1.03125 0.667969,0 z m -0.667969,2.402344 0,-1.136719 0.824219,0 c 0.24479,10e-7 0.429686,0.04818 0.554688,0.144531 0.124997,0.09896 0.187497,0.246095 0.1875,0.441406 -3e-6,0.208334 -0.0625,0.354167 -0.1875,0.4375 -0.111982,0.07552 -0.303388,0.113282 -0.574219,0.113282 l -0.804688,0 z"
       style="font-size:4px;font-style:normal;font-variant:normal;font-weight:normal;font-stretch:normal;text-align:start;line-height:125%;writing-mode:lr-tb;text-anchor:start;fill:#000000;fill-opacity:1;stroke:#000000;stroke-width:0.2;stroke-linecap:butt;stroke-linejoin:miter;stroke-miterlimit:4;stroke-opacity:1;font-family:Dotum;-inkscape-font-specification:Dotum"
       inkscape:export-filename="/home/rpelisse/Repositories/isep/middleware.hg/img/svg.png"
       inkscape:export-xdpi="61.445145"
       inkscape:export-ydpi="61.445145" />
  </g>
</svg>
